<?xml version="1.0" encoding="UTF-8"?>
<!DOCTYPE svg PUBLIC "-//W3C//DTD SVG 1.1//EN" "http://www.w3.org/Graphics/SVG/1.1/DTD/svg11.dtd">
<svg xmlns="http://www.w3.org/2000/svg" version="1.1" width="1516px" height="2138px" style="shape-rendering:geometricPrecision; text-rendering:geometricPrecision; image-rendering:optimizeQuality; fill-rule:evenodd; clip-rule:evenodd" xmlns:xlink="http://www.w3.org/1999/xlink">
<g><path style="opacity:0.995" fill="#264de4" d="M 43.5,280.5 C 519.5,280.5 995.5,280.5 1471.5,280.5C 1471.73,303.366 1469.9,326.032 1466,348.5C 1461.91,409.782 1456.41,470.615 1449.5,531C 1447.61,561.298 1445.44,591.798 1443,622.5C 1442.1,628.263 1441.1,633.929 1440,639.5C 1436.56,682.159 1433.23,724.825 1430,767.5C 1429.15,773.614 1428.15,779.614 1427,785.5C 1423.62,827.829 1420.28,870.163 1417,912.5C 1411.86,956.713 1407.86,1001.05 1405,1045.5C 1403.75,1058.03 1402.25,1070.53 1400.5,1083C 1382.94,1276.57 1365.94,1470.4 1349.5,1664.5C 1346.97,1689.27 1344.31,1714.27 1341.5,1739.5C 1339.33,1740.95 1337,1742.11 1334.5,1743C 1318.42,1746.27 1302.75,1750.6 1287.5,1756C 1258.17,1763.67 1228.83,1771.33 1199.5,1779C 1195.21,1780.65 1190.88,1782.32 1186.5,1784C 1170.33,1786.96 1154.67,1791.29 1139.5,1797C 1130.83,1799 1122.17,1801 1113.5,1803C 1090.8,1809.67 1068.14,1816.34 1045.5,1823C 949.101,1848.67 852.935,1874.84 757,1901.5C 742.37,1898.55 727.87,1895.05 713.5,1891C 535.791,1840.74 357.791,1791.41 179.5,1743C 176.201,1742.25 173.534,1740.58 171.5,1738C 171.103,1719.56 169.27,1701.06 166,1682.5C 158.392,1591.15 150.726,1499.82 143,1408.5C 141.565,1398.51 140.232,1388.51 139,1378.5C 135.78,1329.42 131.446,1280.75 126,1232.5C 109.628,1038.29 92.4617,844.457 74.5,651C 74.8333,650.667 75.1667,650.333 75.5,650C 74.5792,641.749 73.4125,633.583 72,625.5C 66.1103,548.541 59.277,472.041 51.5,396C 49.9732,366.53 47.4732,337.03 44,307.5C 43.5002,298.506 43.3336,289.506 43.5,280.5 Z"/></g>
<g><path style="opacity:1" fill="#2757e9" d="M 757.5,400.5 C 951.999,399.5 1146.67,399.167 1341.5,399.5C 1341.23,406.683 1340.57,413.683 1339.5,420.5C 1339.45,413.809 1339.79,407.143 1340.5,400.5C 1146.17,400.5 951.833,400.5 757.5,400.5 Z"/></g>
<g><path style="opacity:1" fill="#2965f0" d="M 757.5,400.5 C 951.833,400.5 1146.17,400.5 1340.5,400.5C 1339.79,407.143 1339.45,413.809 1339.5,420.5C 1308.3,759.619 1278.13,1098.95 1249,1438.5C 1242.01,1507.66 1235.84,1577 1230.5,1646.5C 1151.44,1667.25 1072.78,1689.08 994.5,1712C 978.659,1714.95 963.325,1719.29 948.5,1725C 916.812,1733 885.145,1741.33 853.5,1750C 828.412,1757.21 803.412,1764.55 778.5,1772C 771.537,1773.72 764.537,1775.22 757.5,1776.5C 757.5,1715.5 757.5,1654.5 757.5,1593.5C 758.552,1593.65 759.552,1593.48 760.5,1593C 756.442,1592.66 752.442,1591.99 748.5,1591C 747.944,1590.62 747.611,1590.12 747.5,1589.5C 751.561,1591.19 755.561,1591.52 759.5,1590.5C 786.125,1583.5 812.792,1576.5 839.5,1569.5C 841.341,1568.33 843.174,1568.33 845,1569.5C 846.364,1568.63 847.53,1567.63 848.5,1566.5C 860.642,1562.79 872.976,1559.46 885.5,1556.5C 887.898,1556.74 889.898,1556.07 891.5,1554.5C 913.643,1548.12 935.977,1542.12 958.5,1536.5C 960.403,1536.2 962.07,1535.54 963.5,1534.5C 967.547,1532.74 971.88,1531.74 976.5,1531.5C 978.403,1531.2 980.07,1530.54 981.5,1529.5C 1010.73,1521.38 1040.06,1513.38 1069.5,1505.5C 1074.16,1504.91 1078.49,1503.58 1082.5,1501.5C 1095.71,1497.43 1109.05,1493.76 1122.5,1490.5C 1123.27,1489.74 1123.77,1488.74 1124,1487.5C 1124.5,1483.85 1124.67,1480.18 1124.5,1476.5C 1126.01,1462.55 1127.01,1448.55 1127.5,1434.5C 1128.8,1430.06 1129.47,1425.39 1129.5,1420.5C 1131.07,1412.05 1131.74,1403.38 1131.5,1394.5C 1132.52,1388.01 1133.18,1381.35 1133.5,1374.5C 1135.2,1368.08 1135.87,1361.41 1135.5,1354.5C 1135.18,1349.97 1135.52,1345.63 1136.5,1341.5C 1138.13,1335.07 1138.79,1328.41 1138.5,1321.5C 1140.1,1298.13 1142.1,1274.8 1144.5,1251.5C 1145.46,1245.34 1146.13,1239.01 1146.5,1232.5C 1148.01,1211.48 1149.68,1190.48 1151.5,1169.5C 1152.8,1165.06 1153.47,1160.39 1153.5,1155.5C 1154.25,1142.48 1155.25,1129.48 1156.5,1116.5C 1157.55,1111.35 1158.22,1106.02 1158.5,1100.5C 1158.5,1098.17 1158.5,1095.83 1158.5,1093.5C 1159.36,1088 1160.03,1082.33 1160.5,1076.5C 1160.18,1071.97 1160.52,1067.63 1161.5,1063.5C 1162.81,1057.04 1163.48,1050.37 1163.5,1043.5C 1166.92,997.305 1170.92,951.305 1175.5,905.5C 1177.13,899.072 1177.79,892.405 1177.5,885.5C 1177.37,881.119 1177.71,876.785 1178.5,872.5C 1179.29,871.391 1179.79,870.058 1180,868.5C 1180.5,863.177 1180.67,857.844 1180.5,852.5C 1180.52,843.635 1181.18,834.968 1182.5,826.5C 1184.28,812.02 1185.62,797.353 1186.5,782.5C 1187.26,773.841 1187.93,765.175 1188.5,756.5C 1189.29,755.391 1189.79,754.058 1190,752.5C 1190.93,743.855 1191.43,735.189 1191.5,726.5C 1193.22,699.771 1195.56,673.104 1198.5,646.5C 1199.81,644.257 1200.48,641.59 1200.5,638.5C 1200.97,632.504 1201.3,626.504 1201.5,620.5C 1201.92,610.812 1202.59,601.146 1203.5,591.5C 1204.48,587.366 1204.82,583.032 1204.5,578.5C 1055.84,576.502 906.837,575.835 757.5,576.5C 757.5,517.833 757.5,459.167 757.5,400.5 Z"/></g>
<g><path style="opacity:1" fill="#2048e3" d="M 756.5,578.5 C 607.5,578.5 458.5,578.5 309.5,578.5C 309.389,577.883 309.056,577.383 308.5,577C 383.167,576.833 457.833,576.667 532.5,576.5C 607.503,576.5 682.17,577.167 756.5,578.5 Z"/></g>
<g><path style="opacity:1" fill="#2360f0" d="M 757.5,576.5 C 906.837,575.835 1055.84,576.502 1204.5,578.5C 1055.5,578.5 906.5,578.5 757.5,578.5C 757.5,577.833 757.5,577.167 757.5,576.5 Z"/></g>
<g><path style="opacity:1" fill="#7089e6" d="M 309.5,578.5 C 458.5,578.5 607.5,578.5 756.5,578.5C 756.5,578.833 756.5,579.167 756.5,579.5C 607.332,579.167 458.332,579.5 309.5,580.5C 309.5,581.167 309.5,581.833 309.5,582.5C 309.5,583.833 309.5,585.167 309.5,586.5C 308.167,583.833 308.167,581.167 309.5,578.5 Z"/></g>
<g><path style="opacity:1" fill="#7da0f7" d="M 756.5,579.5 C 756.5,579.167 756.5,578.833 756.5,578.5C 756.833,578.5 757.167,578.5 757.5,578.5C 906.5,578.5 1055.5,578.5 1204.5,578.5C 1204.82,583.032 1204.48,587.366 1203.5,591.5C 1203.5,587.5 1203.5,583.5 1203.5,579.5C 1054.5,579.5 905.5,579.5 756.5,579.5 Z"/></g>
<g><path style="opacity:1" fill="#fcf9ec" d="M 309.5,580.5 C 458.668,580.167 607.668,580.5 756.5,581.5C 607.43,581.168 458.43,581.502 309.5,582.5C 309.5,581.833 309.5,581.167 309.5,580.5 Z"/></g>
<g><path style="opacity:1" fill="#fefefe" d="M 309.5,580.5 C 458.332,579.5 607.332,579.167 756.5,579.5C 905.5,579.5 1054.5,579.5 1203.5,579.5C 1203.5,583.5 1203.5,587.5 1203.5,591.5C 1202.59,601.146 1201.92,610.812 1201.5,620.5C 1199.9,628.956 1198.9,637.622 1198.5,646.5C 1195.56,673.104 1193.22,699.771 1191.5,726.5C 1189.85,736.293 1188.85,746.293 1188.5,756.5C 1187.93,765.175 1187.26,773.841 1186.5,782.5C 1185.73,783.263 1185.23,784.263 1185,785.5C 1183.83,799.151 1183,812.817 1182.5,826.5C 1181.18,834.968 1180.52,843.635 1180.5,852.5C 1179.19,858.959 1178.52,865.626 1178.5,872.5C 1177.71,876.785 1177.37,881.119 1177.5,885.5C 1175.87,891.928 1175.21,898.595 1175.5,905.5C 1170.92,951.305 1166.92,997.305 1163.5,1043.5C 1161.87,1049.93 1161.21,1056.59 1161.5,1063.5C 1160.52,1067.63 1160.18,1071.97 1160.5,1076.5C 1158.55,1081.74 1157.88,1087.4 1158.5,1093.5C 1158.5,1095.83 1158.5,1098.17 1158.5,1100.5C 1157.73,1101.26 1157.23,1102.26 1157,1103.5C 1156.5,1107.82 1156.33,1112.15 1156.5,1116.5C 1155.25,1129.48 1154.25,1142.48 1153.5,1155.5C 1151.79,1159.88 1151.12,1164.55 1151.5,1169.5C 1149.68,1190.48 1148.01,1211.48 1146.5,1232.5C 1145.73,1233.26 1145.23,1234.26 1145,1235.5C 1144.5,1240.82 1144.33,1246.16 1144.5,1251.5C 1142.1,1274.8 1140.1,1298.13 1138.5,1321.5C 1136.87,1327.93 1136.21,1334.59 1136.5,1341.5C 1135.52,1345.63 1135.18,1349.97 1135.5,1354.5C 1134.48,1360.99 1133.82,1367.65 1133.5,1374.5C 1133.18,1381.35 1132.52,1388.01 1131.5,1394.5C 1130.18,1402.97 1129.52,1411.64 1129.5,1420.5C 1127.79,1424.88 1127.12,1429.55 1127.5,1434.5C 1127.01,1448.55 1126.01,1462.55 1124.5,1476.5C 1123.58,1480.99 1122.91,1485.66 1122.5,1490.5C 1109.05,1493.76 1095.71,1497.43 1082.5,1501.5C 1078.49,1502.22 1074.49,1503.06 1070.5,1504C 1069.94,1504.38 1069.61,1504.88 1069.5,1505.5C 1040.06,1513.38 1010.73,1521.38 981.5,1529.5C 979.302,1529.12 977.635,1529.79 976.5,1531.5C 971.88,1531.74 967.547,1532.74 963.5,1534.5C 961.302,1534.12 959.635,1534.79 958.5,1536.5C 935.977,1542.12 913.643,1548.12 891.5,1554.5C 889.102,1554.26 887.102,1554.93 885.5,1556.5C 872.976,1559.46 860.642,1562.79 848.5,1566.5C 845.008,1566.45 842.008,1567.45 839.5,1569.5C 812.792,1576.5 786.125,1583.5 759.5,1590.5C 757.801,1590.66 756.134,1590.49 754.5,1590C 756.169,1528.64 757.169,1467.14 757.5,1405.5C 763.568,1403.09 769.902,1401.43 776.5,1400.5C 778.403,1400.2 780.07,1399.54 781.5,1398.5C 784.829,1398.78 787.829,1398.12 790.5,1396.5C 794.239,1394.9 798.239,1393.9 802.5,1393.5C 804.403,1393.2 806.07,1392.54 807.5,1391.5C 810.544,1389.99 813.878,1389.32 817.5,1389.5C 822.165,1388.94 826.498,1387.61 830.5,1385.5C 836.906,1383.23 843.573,1381.57 850.5,1380.5C 852.403,1380.2 854.07,1379.54 855.5,1378.5C 869.864,1374.96 884.197,1371.29 898.5,1367.5C 903.438,1366.77 908.105,1365.44 912.5,1363.5C 915.535,1362.63 918.535,1361.63 921.5,1360.5C 924.829,1360.78 927.829,1360.12 930.5,1358.5C 935.573,1356.57 940.906,1355.23 946.5,1354.5C 948.898,1354.74 950.898,1354.07 952.5,1352.5C 953.833,1352.5 955.167,1352.5 956.5,1352.5C 956.5,1349.17 956.5,1345.83 956.5,1342.5C 957.2,1338.2 957.533,1333.87 957.5,1329.5C 958.29,1328.39 958.79,1327.06 959,1325.5C 959.499,1321.18 959.666,1316.85 959.5,1312.5C 959.5,1311.5 959.5,1310.5 959.5,1309.5C 961.012,1304.07 961.679,1298.4 961.5,1292.5C 961.5,1291.5 961.5,1290.5 961.5,1289.5C 963.126,1283.07 963.793,1276.41 963.5,1269.5C 963.892,1256.07 964.892,1242.74 966.5,1229.5C 968.538,1216.71 969.872,1203.71 970.5,1190.5C 970.5,1189.83 970.5,1189.17 970.5,1188.5C 972.075,1181.73 972.741,1174.73 972.5,1167.5C 972.559,1158.4 973.226,1149.4 974.5,1140.5C 975.875,1133.71 976.542,1126.71 976.5,1119.5C 903.167,1119.5 829.833,1119.5 756.5,1119.5C 756.5,1060.17 756.5,1000.83 756.5,941.5C 835.335,941.833 914.002,941.499 992.5,940.5C 992.179,934.974 992.512,929.64 993.5,924.5C 994.518,919.016 995.184,913.349 995.5,907.5C 996.369,890.65 997.702,873.983 999.5,857.5C 1000.97,850.049 1001.64,842.382 1001.5,834.5C 1003.08,811.119 1005.08,787.786 1007.5,764.5C 1008.47,762.393 1008.8,760.059 1008.5,757.5C 924.5,757.5 840.5,757.5 756.5,757.5C 756.5,756.833 756.5,756.167 756.5,755.5C 756.5,697.5 756.5,639.5 756.5,581.5C 607.668,580.5 458.668,580.167 309.5,580.5 Z"/></g>
<g><path style="opacity:1" fill="#eaeaeb" d="M 756.5,581.5 C 756.5,639.5 756.5,697.5 756.5,755.5C 612.829,754.835 469.496,755.502 326.5,757.5C 325.833,755.5 325.167,753.5 324.5,751.5C 324.5,750.5 324.5,749.5 324.5,748.5C 324.21,741.984 323.543,735.65 322.5,729.5C 319.836,699.205 317.169,668.872 314.5,638.5C 314.332,629.817 313.832,621.151 313,612.5C 312.768,611.263 312.268,610.263 311.5,609.5C 311.333,601.643 310.666,593.977 309.5,586.5C 309.5,585.167 309.5,583.833 309.5,582.5C 458.43,581.502 607.43,581.168 756.5,581.5 Z"/></g>
<g><path style="opacity:1" fill="#b4bde9" d="M 311.5,609.5 C 312.268,610.263 312.768,611.263 313,612.5C 313.832,621.151 314.332,629.817 314.5,638.5C 313.049,629.023 312.049,619.356 311.5,609.5 Z"/></g>
<g><path style="opacity:1" fill="#517df3" d="M 1201.5,620.5 C 1201.3,626.504 1200.97,632.504 1200.5,638.5C 1200.48,641.59 1199.81,644.257 1198.5,646.5C 1198.9,637.622 1199.9,628.956 1201.5,620.5 Z"/></g>
<g><path style="opacity:1" fill="#85a3f7" d="M 1191.5,726.5 C 1191.43,735.189 1190.93,743.855 1190,752.5C 1189.79,754.058 1189.29,755.391 1188.5,756.5C 1188.85,746.293 1189.85,736.293 1191.5,726.5 Z"/></g>
<g><path style="opacity:1" fill="#778ae6" d="M 322.5,729.5 C 323.543,735.65 324.21,741.984 324.5,748.5C 322.823,742.416 322.156,736.082 322.5,729.5 Z"/></g>
<g><path style="opacity:1" fill="#f1f0eb" d="M 756.5,755.5 C 756.5,756.167 756.5,756.833 756.5,757.5C 613.167,757.5 469.833,757.5 326.5,757.5C 469.496,755.502 612.829,754.835 756.5,755.5 Z"/></g>
<g><path style="opacity:1" fill="#8b9fe8" d="M 324.5,751.5 C 325.167,753.5 325.833,755.5 326.5,757.5C 469.833,757.5 613.167,757.5 756.5,757.5C 756.5,757.833 756.5,758.167 756.5,758.5C 612.5,758.5 468.5,758.5 324.5,758.5C 324.5,756.167 324.5,753.833 324.5,751.5 Z"/></g>
<g><path style="opacity:1" fill="#98b5f7" d="M 756.5,758.5 C 756.5,758.167 756.5,757.833 756.5,757.5C 840.5,757.5 924.5,757.5 1008.5,757.5C 1008.8,760.059 1008.47,762.393 1007.5,764.5C 1007.5,763.167 1007.5,761.833 1007.5,760.5C 924.173,758.503 840.507,757.836 756.5,758.5 Z"/></g>
<g><path style="opacity:1" fill="#255fef" d="M 756.5,758.5 C 840.507,757.836 924.173,758.503 1007.5,760.5C 924.167,760.5 840.833,760.5 757.5,760.5C 757.5,820.167 757.5,879.833 757.5,939.5C 756.501,879.336 756.168,819.002 756.5,758.5 Z"/></g>
<g><path style="opacity:1" fill="#2965f0" d="M 1007.5,760.5 C 1007.5,761.833 1007.5,763.167 1007.5,764.5C 1005.08,787.786 1003.08,811.119 1001.5,834.5C 1000.03,841.951 999.361,849.618 999.5,857.5C 997.702,873.983 996.369,890.65 995.5,907.5C 994.732,908.263 994.232,909.263 994,910.5C 993.501,915.155 993.334,919.821 993.5,924.5C 992.512,929.64 992.179,934.974 992.5,940.5C 992.167,940.5 991.833,940.5 991.5,940.5C 913.668,939.501 835.668,939.167 757.5,939.5C 757.5,879.833 757.5,820.167 757.5,760.5C 840.833,760.5 924.167,760.5 1007.5,760.5 Z"/></g>
<g><path style="opacity:1" fill="#bfcffb" d="M 1186.5,782.5 C 1185.62,797.353 1184.28,812.02 1182.5,826.5C 1183,812.817 1183.83,799.151 1185,785.5C 1185.23,784.263 1185.73,783.263 1186.5,782.5 Z"/></g>
<g><path style="opacity:1" fill="#97b2f8" d="M 1001.5,834.5 C 1001.64,842.382 1000.97,850.049 999.5,857.5C 999.361,849.618 1000.03,841.951 1001.5,834.5 Z"/></g>
<g><path style="opacity:1" fill="#6289f4" d="M 1180.5,852.5 C 1180.67,857.844 1180.5,863.177 1180,868.5C 1179.79,870.058 1179.29,871.391 1178.5,872.5C 1178.52,865.626 1179.19,858.959 1180.5,852.5 Z"/></g>
<g><path style="opacity:1" fill="#83a2f7" d="M 1177.5,885.5 C 1177.79,892.405 1177.13,899.072 1175.5,905.5C 1175.21,898.595 1175.87,891.928 1177.5,885.5 Z"/></g>
<g><path style="opacity:1" fill="#87a6f7" d="M 995.5,907.5 C 995.184,913.349 994.518,919.016 993.5,924.5C 993.334,919.821 993.501,915.155 994,910.5C 994.232,909.263 994.732,908.263 995.5,907.5 Z"/></g>
<g><path style="opacity:1" fill="#eaeaeb" d="M 991.5,940.5 C 991.833,940.5 992.167,940.5 992.5,940.5C 914.002,941.499 835.335,941.833 756.5,941.5C 756.5,1000.83 756.5,1060.17 756.5,1119.5C 623.5,1119.5 490.5,1119.5 357.5,1119.5C 354.818,1094.34 352.485,1069.01 350.5,1043.5C 350.332,1037.97 349.665,1032.63 348.5,1027.5C 347.108,1008.67 345.441,990 343.5,971.5C 343.867,964.585 343.201,957.919 341.5,951.5C 341.5,947.833 341.5,944.167 341.5,940.5C 558.167,940.5 774.833,940.5 991.5,940.5 Z"/></g>
<g><path style="opacity:1" fill="#637ae6" d="M 341.5,951.5 C 343.201,957.919 343.867,964.585 343.5,971.5C 342.187,965.041 341.521,958.374 341.5,951.5 Z"/></g>
<g><path style="opacity:1" fill="#6a7ee6" d="M 348.5,1027.5 C 349.665,1032.63 350.332,1037.97 350.5,1043.5C 349.732,1042.74 349.232,1041.74 349,1040.5C 348.501,1036.18 348.334,1031.85 348.5,1027.5 Z"/></g>
<g><path style="opacity:1" fill="#7196f5" d="M 1163.5,1043.5 C 1163.48,1050.37 1162.81,1057.04 1161.5,1063.5C 1161.21,1056.59 1161.87,1049.93 1163.5,1043.5 Z"/></g>
<g><path style="opacity:1" fill="#c7d4fb" d="M 1160.5,1076.5 C 1160.03,1082.33 1159.36,1088 1158.5,1093.5C 1157.88,1087.4 1158.55,1081.74 1160.5,1076.5 Z"/></g>
<g><path style="opacity:1" fill="#a6bcf9" d="M 1158.5,1100.5 C 1158.22,1106.02 1157.55,1111.35 1156.5,1116.5C 1156.33,1112.15 1156.5,1107.82 1157,1103.5C 1157.23,1102.26 1157.73,1101.26 1158.5,1100.5 Z"/></g>
<g><path style="opacity:1" fill="#a2b7f2" d="M 357.5,1119.5 C 490.5,1119.5 623.5,1119.5 756.5,1119.5C 829.833,1119.5 903.167,1119.5 976.5,1119.5C 976.542,1126.71 975.875,1133.71 974.5,1140.5C 974.527,1133.81 974.861,1127.15 975.5,1120.5C 902.833,1120.5 830.167,1120.5 757.5,1120.5C 623.999,1120.83 490.666,1120.5 357.5,1119.5 Z"/></g>
<g><path style="opacity:1" fill="#2964f0" d="M 757.5,1120.5 C 830.167,1120.5 902.833,1120.5 975.5,1120.5C 974.861,1127.15 974.527,1133.81 974.5,1140.5C 973.226,1149.4 972.559,1158.4 972.5,1167.5C 971.125,1174.29 970.458,1181.29 970.5,1188.5C 970.5,1189.17 970.5,1189.83 970.5,1190.5C 969.732,1191.26 969.232,1192.26 969,1193.5C 967.895,1205.49 967.062,1217.49 966.5,1229.5C 964.892,1242.74 963.892,1256.07 963.5,1269.5C 961.874,1275.93 961.207,1282.59 961.5,1289.5C 961.5,1290.5 961.5,1291.5 961.5,1292.5C 959.988,1297.93 959.321,1303.6 959.5,1309.5C 959.5,1310.5 959.5,1311.5 959.5,1312.5C 958.383,1317.97 957.717,1323.64 957.5,1329.5C 957.533,1333.87 957.2,1338.2 956.5,1342.5C 955.523,1345.29 955.19,1348.29 955.5,1351.5C 954.209,1351.26 953.209,1351.6 952.5,1352.5C 950.102,1352.26 948.102,1352.93 946.5,1354.5C 940.906,1355.23 935.573,1356.57 930.5,1358.5C 927.273,1358.68 924.273,1359.34 921.5,1360.5C 918.535,1361.63 915.535,1362.63 912.5,1363.5C 907.471,1363.92 902.805,1365.25 898.5,1367.5C 884.197,1371.29 869.864,1374.96 855.5,1378.5C 853.302,1378.12 851.635,1378.79 850.5,1380.5C 843.573,1381.57 836.906,1383.23 830.5,1385.5C 825.835,1386.06 821.502,1387.39 817.5,1389.5C 813.878,1389.32 810.544,1389.99 807.5,1391.5C 805.302,1391.12 803.635,1391.79 802.5,1393.5C 798.239,1393.9 794.239,1394.9 790.5,1396.5C 787.273,1396.68 784.273,1397.34 781.5,1398.5C 779.302,1398.12 777.635,1398.79 776.5,1400.5C 769.902,1401.43 763.568,1403.09 757.5,1405.5C 755.901,1405.77 754.568,1405.43 753.5,1404.5C 755.288,1404.79 756.955,1404.45 758.5,1403.5C 757.503,1309.21 757.169,1214.87 757.5,1120.5 Z"/></g>
<g><path style="opacity:1" fill="#abc1f9" d="M 1153.5,1155.5 C 1153.47,1160.39 1152.8,1165.06 1151.5,1169.5C 1151.12,1164.55 1151.79,1159.88 1153.5,1155.5 Z"/></g>
<g><path style="opacity:1" fill="#c1d0fb" d="M 972.5,1167.5 C 972.741,1174.73 972.075,1181.73 970.5,1188.5C 970.458,1181.29 971.125,1174.29 972.5,1167.5 Z"/></g>
<g><path style="opacity:1" fill="#718ae6" d="M 365.5,1209.5 C 425.331,1208.5 485.331,1208.17 545.5,1208.5C 545.5,1209.83 545.5,1211.17 545.5,1212.5C 544.662,1212.16 544.328,1211.49 544.5,1210.5C 485.002,1209.5 425.336,1209.17 365.5,1209.5 Z"/></g>
<g><path style="opacity:1" fill="#d0d4e9" d="M 365.5,1209.5 C 425.336,1209.17 485.002,1209.5 544.5,1210.5C 485.167,1210.5 425.833,1210.5 366.5,1210.5C 366.5,1215.5 366.5,1220.5 366.5,1225.5C 365.512,1220.36 365.179,1215.03 365.5,1209.5 Z"/></g>
<g><path style="opacity:1" fill="#7c9df6" d="M 970.5,1190.5 C 969.872,1203.71 968.538,1216.71 966.5,1229.5C 967.062,1217.49 967.895,1205.49 969,1193.5C 969.232,1192.26 969.732,1191.26 970.5,1190.5 Z"/></g>
<g><path style="opacity:1" fill="#eaeaeb" d="M 544.5,1210.5 C 544.328,1211.49 544.662,1212.16 545.5,1212.5C 546.032,1218.15 546.365,1223.82 546.5,1229.5C 546.334,1236.17 546.5,1242.84 547,1249.5C 547.232,1250.74 547.732,1251.74 548.5,1252.5C 548.5,1253.5 548.5,1254.5 548.5,1255.5C 548.931,1265.7 549.931,1275.7 551.5,1285.5C 551.259,1292.73 551.925,1299.73 553.5,1306.5C 554.299,1313.82 554.965,1321.15 555.5,1328.5C 555.361,1336.38 556.028,1344.05 557.5,1351.5C 559.102,1353.07 561.102,1353.74 563.5,1353.5C 568.677,1354.99 574.01,1356.33 579.5,1357.5C 582.452,1359.41 585.786,1360.41 589.5,1360.5C 595.692,1361.88 601.692,1363.55 607.5,1365.5C 609.905,1366.77 612.572,1367.43 615.5,1367.5C 618.112,1368.37 620.779,1369.04 623.5,1369.5C 626.452,1371.41 629.786,1372.41 633.5,1372.5C 646.506,1375.73 659.506,1379.06 672.5,1382.5C 675.008,1384.55 678.008,1385.55 681.5,1385.5C 681.833,1385.5 682.167,1385.5 682.5,1385.5C 684.515,1386.92 686.848,1387.59 689.5,1387.5C 694.634,1388.73 699.634,1390.07 704.5,1391.5C 706.515,1392.92 708.848,1393.59 711.5,1393.5C 712.708,1394.23 714.041,1394.57 715.5,1394.5C 719.793,1396.74 724.46,1398.08 729.5,1398.5C 737.478,1400.36 745.478,1402.36 753.5,1404.5C 754.568,1405.43 755.901,1405.77 757.5,1405.5C 757.169,1467.14 756.169,1528.64 754.5,1590C 756.134,1590.49 757.801,1590.66 759.5,1590.5C 755.561,1591.52 751.561,1591.19 747.5,1589.5C 744.67,1589.04 742.003,1588.37 739.5,1587.5C 736.746,1586.05 733.746,1585.05 730.5,1584.5C 721.522,1583.09 712.855,1580.76 704.5,1577.5C 702.485,1576.08 700.152,1575.41 697.5,1575.5C 685.49,1572.38 673.49,1569.05 661.5,1565.5C 659.485,1564.08 657.152,1563.41 654.5,1563.5C 644.42,1560.77 634.42,1558.11 624.5,1555.5C 621.746,1554.05 618.746,1553.05 615.5,1552.5C 603.903,1550.43 592.569,1547.43 581.5,1543.5C 579.898,1541.93 577.898,1541.26 575.5,1541.5C 553.484,1535.72 531.484,1529.72 509.5,1523.5C 507.485,1522.08 505.152,1521.41 502.5,1521.5C 497.727,1520.47 493.061,1519.14 488.5,1517.5C 486.485,1516.08 484.152,1515.41 481.5,1515.5C 469.211,1512.76 457.211,1509.43 445.5,1505.5C 443.485,1504.08 441.152,1503.41 438.5,1503.5C 431.087,1501.44 423.753,1499.44 416.5,1497.5C 413.495,1495.72 410.162,1494.72 406.5,1494.5C 402.385,1493.49 398.385,1492.49 394.5,1491.5C 393.469,1490.75 392.302,1490.08 391,1489.5C 390.809,1487.29 390.309,1485.29 389.5,1483.5C 389.189,1474.79 388.523,1466.13 387.5,1457.5C 387.23,1449.49 386.73,1441.49 386,1433.5C 385.768,1432.26 385.268,1431.26 384.5,1430.5C 383.999,1421.81 383.332,1413.14 382.5,1404.5C 382.679,1398.6 382.012,1392.93 380.5,1387.5C 380.32,1379.83 379.986,1372.16 379.5,1364.5C 379.877,1359.55 379.211,1354.88 377.5,1350.5C 373.881,1308.84 370.215,1267.17 366.5,1225.5C 366.5,1220.5 366.5,1215.5 366.5,1210.5C 425.833,1210.5 485.167,1210.5 544.5,1210.5 Z"/></g>
<g><path style="opacity:1" fill="#b5c7fa" d="M 1146.5,1232.5 C 1146.13,1239.01 1145.46,1245.34 1144.5,1251.5C 1144.33,1246.16 1144.5,1240.82 1145,1235.5C 1145.23,1234.26 1145.73,1233.26 1146.5,1232.5 Z"/></g>
<g><path style="opacity:1" fill="#ccd0ea" d="M 546.5,1229.5 C 547.666,1236.98 548.333,1244.64 548.5,1252.5C 547.732,1251.74 547.232,1250.74 547,1249.5C 546.5,1242.84 546.334,1236.17 546.5,1229.5 Z"/></g>
<g><path style="opacity:1" fill="#a5b0e8" d="M 548.5,1255.5 C 550.542,1265.25 551.542,1275.25 551.5,1285.5C 549.931,1275.7 548.931,1265.7 548.5,1255.5 Z"/></g>
<g><path style="opacity:1" fill="#b0c4fa" d="M 963.5,1269.5 C 963.793,1276.41 963.126,1283.07 961.5,1289.5C 961.207,1282.59 961.874,1275.93 963.5,1269.5 Z"/></g>
<g><path style="opacity:1" fill="#acb5e9" d="M 551.5,1285.5 C 552.875,1292.29 553.542,1299.29 553.5,1306.5C 551.925,1299.73 551.259,1292.73 551.5,1285.5 Z"/></g>
<g><path style="opacity:1" fill="#adc3f9" d="M 961.5,1292.5 C 961.679,1298.4 961.012,1304.07 959.5,1309.5C 959.321,1303.6 959.988,1297.93 961.5,1292.5 Z"/></g>
<g><path style="opacity:1" fill="#b9cafa" d="M 959.5,1312.5 C 959.666,1316.85 959.499,1321.18 959,1325.5C 958.79,1327.06 958.29,1328.39 957.5,1329.5C 957.717,1323.64 958.383,1317.97 959.5,1312.5 Z"/></g>
<g><path style="opacity:1" fill="#87a5f7" d="M 1138.5,1321.5 C 1138.79,1328.41 1138.13,1335.07 1136.5,1341.5C 1136.21,1334.59 1136.87,1327.93 1138.5,1321.5 Z"/></g>
<g><path style="opacity:1" fill="#91a0e8" d="M 555.5,1328.5 C 556.972,1335.95 557.639,1343.62 557.5,1351.5C 556.028,1344.05 555.361,1336.38 555.5,1328.5 Z"/></g>
<g><path style="opacity:1" fill="#7b9cf6" d="M 956.5,1342.5 C 956.5,1345.83 956.5,1349.17 956.5,1352.5C 955.167,1352.5 953.833,1352.5 952.5,1352.5C 953.209,1351.6 954.209,1351.26 955.5,1351.5C 955.19,1348.29 955.523,1345.29 956.5,1342.5 Z"/></g>
<g><path style="opacity:1" fill="#7b8ce7" d="M 557.5,1351.5 C 559.898,1351.26 561.898,1351.93 563.5,1353.5C 561.102,1353.74 559.102,1353.07 557.5,1351.5 Z"/></g>
<g><path style="opacity:1" fill="#b7c9fa" d="M 952.5,1352.5 C 950.898,1354.07 948.898,1354.74 946.5,1354.5C 948.102,1352.93 950.102,1352.26 952.5,1352.5 Z"/></g>
<g><path style="opacity:1" fill="#b9c2e9" d="M 377.5,1350.5 C 379.211,1354.88 379.877,1359.55 379.5,1364.5C 378.199,1360.06 377.532,1355.39 377.5,1350.5 Z"/></g>
<g><path style="opacity:1" fill="#94a2e8" d="M 579.5,1357.5 C 583.116,1357.9 586.45,1358.9 589.5,1360.5C 585.786,1360.41 582.452,1359.41 579.5,1357.5 Z"/></g>
<g><path style="opacity:1" fill="#88a5f7" d="M 930.5,1358.5 C 927.829,1360.12 924.829,1360.78 921.5,1360.5C 924.273,1359.34 927.273,1358.68 930.5,1358.5 Z"/></g>
<g><path style="opacity:1" fill="#6d90f5" d="M 1135.5,1354.5 C 1135.87,1361.41 1135.2,1368.08 1133.5,1374.5C 1133.82,1367.65 1134.48,1360.99 1135.5,1354.5 Z"/></g>
<g><path style="opacity:1" fill="#b7c9fa" d="M 912.5,1363.5 C 908.105,1365.44 903.438,1366.77 898.5,1367.5C 902.805,1365.25 907.471,1363.92 912.5,1363.5 Z"/></g>
<g><path style="opacity:1" fill="#8597e7" d="M 607.5,1365.5 C 610.495,1365.29 613.162,1365.96 615.5,1367.5C 612.572,1367.43 609.905,1366.77 607.5,1365.5 Z"/></g>
<g><path style="opacity:1" fill="#a3aee8" d="M 623.5,1369.5 C 627.116,1369.9 630.45,1370.9 633.5,1372.5C 629.786,1372.41 626.452,1371.41 623.5,1369.5 Z"/></g>
<g><path style="opacity:1" fill="#89a8f6" d="M 855.5,1378.5 C 854.07,1379.54 852.403,1380.2 850.5,1380.5C 851.635,1378.79 853.302,1378.12 855.5,1378.5 Z"/></g>
<g><path style="opacity:1" fill="#a1ace8" d="M 672.5,1382.5 C 675.746,1383.05 678.746,1384.05 681.5,1385.5C 678.008,1385.55 675.008,1384.55 672.5,1382.5 Z"/></g>
<g><path style="opacity:1" fill="#798ce6" d="M 682.5,1385.5 C 685.152,1385.41 687.485,1386.08 689.5,1387.5C 686.848,1387.59 684.515,1386.92 682.5,1385.5 Z"/></g>
<g><path style="opacity:1" fill="#cad7fb" d="M 830.5,1385.5 C 826.498,1387.61 822.165,1388.94 817.5,1389.5C 821.502,1387.39 825.835,1386.06 830.5,1385.5 Z"/></g>
<g><path style="opacity:1" fill="#8394e6" d="M 704.5,1391.5 C 707.152,1391.41 709.485,1392.08 711.5,1393.5C 708.848,1393.59 706.515,1392.92 704.5,1391.5 Z"/></g>
<g><path style="opacity:1" fill="#8eacf7" d="M 807.5,1391.5 C 806.07,1392.54 804.403,1393.2 802.5,1393.5C 803.635,1391.79 805.302,1391.12 807.5,1391.5 Z"/></g>
<g><path style="opacity:1" fill="#aeb7e8" d="M 715.5,1394.5 C 720.445,1395.23 725.112,1396.57 729.5,1398.5C 724.46,1398.08 719.793,1396.74 715.5,1394.5 Z"/></g>
<g><path style="opacity:1" fill="#a3baf9" d="M 790.5,1396.5 C 787.829,1398.12 784.829,1398.78 781.5,1398.5C 784.273,1397.34 787.273,1396.68 790.5,1396.5 Z"/></g>
<g><path style="opacity:1" fill="#8ba9f7" d="M 781.5,1398.5 C 780.07,1399.54 778.403,1400.2 776.5,1400.5C 777.635,1398.79 779.302,1398.12 781.5,1398.5 Z"/></g>
<g><path style="opacity:1" fill="#657be6" d="M 380.5,1387.5 C 382.012,1392.93 382.679,1398.6 382.5,1404.5C 381.71,1403.39 381.21,1402.06 381,1400.5C 380.501,1396.18 380.334,1391.85 380.5,1387.5 Z"/></g>
<g><path style="opacity:1" fill="#9cb5f8" d="M 1131.5,1394.5 C 1131.74,1403.38 1131.07,1412.05 1129.5,1420.5C 1129.52,1411.64 1130.18,1402.97 1131.5,1394.5 Z"/></g>
<g><path style="opacity:1" fill="#cdd9fc" d="M 1129.5,1420.5 C 1129.47,1425.39 1128.8,1430.06 1127.5,1434.5C 1127.12,1429.55 1127.79,1424.88 1129.5,1420.5 Z"/></g>
<g><path style="opacity:1" fill="#a5b0e8" d="M 384.5,1430.5 C 385.268,1431.26 385.768,1432.26 386,1433.5C 386.73,1441.49 387.23,1449.49 387.5,1457.5C 385.89,1448.71 384.89,1439.71 384.5,1430.5 Z"/></g>
<g><path style="opacity:1" fill="#98b3f8" d="M 1124.5,1476.5 C 1124.67,1480.18 1124.5,1483.85 1124,1487.5C 1123.77,1488.74 1123.27,1489.74 1122.5,1490.5C 1122.91,1485.66 1123.58,1480.99 1124.5,1476.5 Z"/></g>
<g><path style="opacity:1" fill="#99a7e8" d="M 389.5,1483.5 C 390.309,1485.29 390.809,1487.29 391,1489.5C 392.302,1490.08 393.469,1490.75 394.5,1491.5C 392.856,1491.71 391.356,1491.38 390,1490.5C 389.503,1488.19 389.337,1485.86 389.5,1483.5 Z"/></g>
<g><path style="opacity:1" fill="#a6b1e8" d="M 406.5,1494.5 C 410.162,1494.72 413.495,1495.72 416.5,1497.5C 412.838,1497.28 409.505,1496.28 406.5,1494.5 Z"/></g>
<g><path style="opacity:1" fill="#86a5f7" d="M 1082.5,1501.5 C 1078.49,1503.58 1074.16,1504.91 1069.5,1505.5C 1069.61,1504.88 1069.94,1504.38 1070.5,1504C 1074.49,1503.06 1078.49,1502.22 1082.5,1501.5 Z"/></g>
<g><path style="opacity:1" fill="#abb6e9" d="M 438.5,1503.5 C 441.152,1503.41 443.485,1504.08 445.5,1505.5C 442.848,1505.59 440.515,1504.92 438.5,1503.5 Z"/></g>
<g><path style="opacity:1" fill="#a5b1e8" d="M 481.5,1515.5 C 484.152,1515.41 486.485,1516.08 488.5,1517.5C 485.848,1517.59 483.515,1516.92 481.5,1515.5 Z"/></g>
<g><path style="opacity:1" fill="#909fe7" d="M 502.5,1521.5 C 505.152,1521.41 507.485,1522.08 509.5,1523.5C 506.848,1523.59 504.515,1522.92 502.5,1521.5 Z"/></g>
<g><path style="opacity:1" fill="#88a7f7" d="M 981.5,1529.5 C 980.07,1530.54 978.403,1531.2 976.5,1531.5C 977.635,1529.79 979.302,1529.12 981.5,1529.5 Z"/></g>
<g><path style="opacity:1" fill="#88a8f6" d="M 963.5,1534.5 C 962.07,1535.54 960.403,1536.2 958.5,1536.5C 959.635,1534.79 961.302,1534.12 963.5,1534.5 Z"/></g>
<g><path style="opacity:1" fill="#9ca9e8" d="M 575.5,1541.5 C 577.898,1541.26 579.898,1541.93 581.5,1543.5C 579.102,1543.74 577.102,1543.07 575.5,1541.5 Z"/></g>
<g><path style="opacity:1" fill="#798be6" d="M 615.5,1552.5 C 618.746,1553.05 621.746,1554.05 624.5,1555.5C 621.008,1555.55 618.008,1554.55 615.5,1552.5 Z"/></g>
<g><path style="opacity:1" fill="#6e91f5" d="M 891.5,1554.5 C 889.898,1556.07 887.898,1556.74 885.5,1556.5C 887.102,1554.93 889.102,1554.26 891.5,1554.5 Z"/></g>
<g><path style="opacity:1" fill="#aeb7e9" d="M 654.5,1563.5 C 657.152,1563.41 659.485,1564.08 661.5,1565.5C 658.848,1565.59 656.515,1564.92 654.5,1563.5 Z"/></g>
<g><path style="opacity:1" fill="#6284f4" d="M 848.5,1566.5 C 847.53,1567.63 846.364,1568.63 845,1569.5C 843.174,1568.33 841.341,1568.33 839.5,1569.5C 842.008,1567.45 845.008,1566.45 848.5,1566.5 Z"/></g>
<g><path style="opacity:1" fill="#a9b3e8" d="M 697.5,1575.5 C 700.152,1575.41 702.485,1576.08 704.5,1577.5C 701.848,1577.59 699.515,1576.92 697.5,1575.5 Z"/></g>
<g><path style="opacity:1" fill="#7184e7" d="M 730.5,1584.5 C 733.746,1585.05 736.746,1586.05 739.5,1587.5C 736.008,1587.55 733.008,1586.55 730.5,1584.5 Z"/></g>
</svg>
