<?xml version="1.0" encoding="UTF-8"?>
<!DOCTYPE svg PUBLIC "-//W3C//DTD SVG 1.1//EN" "http://www.w3.org/Graphics/SVG/1.1/DTD/svg11.dtd">
<svg xmlns="http://www.w3.org/2000/svg" version="1.1" width="1516px" height="2138px" style="shape-rendering:geometricPrecision; text-rendering:geometricPrecision; image-rendering:optimizeQuality; fill-rule:evenodd; clip-rule:evenodd" xmlns:xlink="http://www.w3.org/1999/xlink">
<g><path style="opacity:0.979" fill="#000000" d="M 1445.5,826.5 C 1448.1,834.424 1450.6,842.424 1453,850.5C 1453.33,850.167 1453.67,849.833 1454,849.5C 1455.83,856.141 1457.33,862.807 1458.5,869.5C 1459.99,872.586 1460.99,875.919 1461.5,879.5C 1462.09,879.709 1462.59,880.043 1463,880.5C 1463.33,884.167 1463.67,887.833 1464,891.5C 1464.41,891.043 1464.91,890.709 1465.5,890.5C 1466.19,899.002 1467.35,906.668 1469,913.5C 1469.67,914.167 1470.33,914.833 1471,915.5C 1471.33,919.5 1471.67,923.5 1472,927.5C 1472.67,928.167 1473.33,928.833 1474,929.5C 1476.05,939.524 1477.38,949.857 1478,960.5C 1478.41,960.957 1478.91,961.291 1479.5,961.5C 1481.72,976.641 1482.88,991.975 1483,1007.5C 1483.67,1049.17 1483.67,1090.83 1483,1132.5C 1481.82,1146.15 1480.82,1159.82 1480,1173.5C 1479.33,1172.17 1478.67,1172.17 1478,1173.5C 1477.67,1180.17 1477.33,1186.83 1477,1193.5C 1476.33,1194.17 1475.67,1194.83 1475,1195.5C 1474.67,1199.5 1474.33,1203.5 1474,1207.5C 1473.33,1208.17 1472.67,1208.83 1472,1209.5C 1472.04,1214.14 1471.04,1218.48 1469,1222.5C 1468.21,1226.42 1468.37,1230.26 1469.5,1234C 1468.28,1236.1 1467.45,1235.93 1467,1233.5C 1466.67,1238.17 1466.33,1242.83 1466,1247.5C 1465.33,1248.83 1464.67,1248.83 1464,1247.5C 1463.47,1255.39 1462.31,1262.39 1460.5,1268.5C 1459.5,1268.5 1458.5,1268.5 1457.5,1268.5C 1457.67,1271.85 1457.5,1275.18 1457,1278.5C 1455.98,1277.37 1455.32,1277.7 1455,1279.5C 1452,1290.83 1449,1302.17 1446,1313.5C 1445.25,1314.13 1444.42,1314.63 1443.5,1315C 1443.83,1315.33 1444.17,1315.67 1444.5,1316C 1443.75,1317.73 1443.25,1319.57 1443,1321.5C 1440.37,1326.81 1437.7,1332.15 1435,1337.5C 1434.67,1339.83 1434.33,1342.17 1434,1344.5C 1433.67,1344.17 1433.33,1343.83 1433,1343.5C 1432.76,1346.29 1432.09,1348.96 1431,1351.5C 1430.67,1351.17 1430.33,1350.83 1430,1350.5C 1429.67,1352.83 1429.33,1355.17 1429,1357.5C 1426.01,1358.28 1425.18,1359.94 1426.5,1362.5C 1424.34,1365.45 1423.18,1368.79 1423,1372.5C 1421,1376.5 1419,1380.5 1417,1384.5C 1416.33,1385.83 1415.67,1385.83 1415,1384.5C 1414.5,1386.47 1414.34,1388.47 1414.5,1390.5C 1413.5,1390.5 1412.5,1390.5 1411.5,1390.5C 1411.66,1392.53 1411.5,1394.53 1411,1396.5C 1409.87,1395.4 1409.04,1395.73 1408.5,1397.5C 1409.95,1399.26 1409.62,1400.6 1407.5,1401.5C 1406.83,1403.83 1406.17,1406.17 1405.5,1408.5C 1404.91,1408.29 1404.41,1407.96 1404,1407.5C 1402.41,1411.35 1401.08,1415.35 1400,1419.5C 1399.33,1418.17 1398.67,1418.17 1398,1419.5C 1395.78,1426.3 1392.61,1432.64 1388.5,1438.5C 1386.72,1439.99 1386.05,1441.99 1386.5,1444.5C 1385.5,1444.5 1384.5,1444.5 1383.5,1444.5C 1383.66,1445.87 1383.49,1447.21 1383,1448.5C 1379.14,1452.89 1376.31,1457.89 1374.5,1463.5C 1371.81,1466.06 1369.98,1469.06 1369,1472.5C 1357.67,1489.42 1345.84,1506.42 1333.5,1523.5C 1330.95,1526.42 1328.29,1529.92 1325.5,1534C 1325.83,1534.33 1326.17,1534.67 1326.5,1535C 1325.55,1535.48 1324.55,1535.65 1323.5,1535.5C 1323.5,1536.5 1323.5,1537.5 1323.5,1538.5C 1321.34,1538.83 1319.51,1539.83 1318,1541.5C 1317.38,1542.45 1317.55,1543.28 1318.5,1544C 1317.55,1544.48 1316.55,1544.65 1315.5,1544.5C 1315.5,1545.5 1315.5,1546.5 1315.5,1547.5C 1314.5,1547.5 1313.5,1547.5 1312.5,1547.5C 1311.64,1550.87 1310.64,1553.53 1309.5,1555.5C 1308.5,1555.5 1307.5,1555.5 1306.5,1555.5C 1306.28,1557.66 1305.28,1559.33 1303.5,1560.5C 1299.85,1563.78 1297.19,1567.78 1295.5,1572.5C 1293.36,1572.7 1291.7,1573.7 1290.5,1575.5C 1288.21,1578.46 1286.21,1581.46 1284.5,1584.5C 1279.5,1586.83 1275.83,1590.5 1273.5,1595.5C 1272.5,1595.5 1271.5,1595.5 1270.5,1595.5C 1270.5,1596.5 1270.5,1597.5 1270.5,1598.5C 1269.5,1598.5 1268.5,1598.5 1267.5,1598.5C 1267.5,1599.5 1267.5,1600.5 1267.5,1601.5C 1266.45,1601.35 1265.45,1601.52 1264.5,1602C 1265.83,1603.84 1265.67,1604.34 1264,1603.5C 1261.18,1606.96 1257.68,1610.46 1253.5,1614C 1253.83,1614.33 1254.17,1614.67 1254.5,1615C 1253.55,1615.48 1252.55,1615.65 1251.5,1615.5C 1251.5,1616.5 1251.5,1617.5 1251.5,1618.5C 1249.57,1618.73 1247.9,1619.56 1246.5,1621C 1245.17,1621.67 1245.17,1622.33 1246.5,1623C 1245.21,1623.49 1243.87,1623.66 1242.5,1623.5C 1242.5,1624.5 1242.5,1625.5 1242.5,1626.5C 1241.5,1626.5 1240.5,1626.5 1239.5,1626.5C 1239.5,1627.5 1239.5,1628.5 1239.5,1629.5C 1237.22,1629.61 1235.22,1630.44 1233.5,1632C 1231.33,1634.17 1229.17,1636.33 1227,1638.5C 1226.94,1640.88 1226.1,1641.55 1224.5,1640.5C 1223.61,1641.32 1223.28,1642.32 1223.5,1643.5C 1221.01,1644.2 1218.67,1645.2 1216.5,1646.5C 1216.5,1647.5 1216.5,1648.5 1216.5,1649.5C 1213.67,1649.37 1212.34,1650.37 1212.5,1652.5C 1211.91,1652.29 1211.41,1651.96 1211,1651.5C 1207.65,1655.34 1204.15,1659.01 1200.5,1662.5C 1198.02,1664.33 1195.36,1665.67 1192.5,1666.5C 1192.5,1667.5 1192.5,1668.5 1192.5,1669.5C 1191.13,1669.34 1189.79,1669.51 1188.5,1670C 1189.83,1670.67 1189.83,1671.33 1188.5,1672C 1184.12,1673.56 1180.45,1676.06 1177.5,1679.5C 1176.31,1680.43 1174.98,1680.76 1173.5,1680.5C 1173.5,1681.5 1173.5,1682.5 1173.5,1683.5C 1169.95,1685.27 1166.29,1687.11 1162.5,1689C 1155.86,1695.15 1148.53,1700.32 1140.5,1704.5C 1140.71,1705.09 1141.04,1705.59 1141.5,1706C 1139.87,1706.49 1138.2,1706.66 1136.5,1706.5C 1136.88,1708.94 1136.21,1709.61 1134.5,1708.5C 1132.79,1708.88 1131.79,1709.88 1131.5,1711.5C 1130.13,1711.34 1128.79,1711.51 1127.5,1712C 1126.17,1712.67 1126.17,1713.33 1127.5,1714C 1125.87,1714.49 1124.2,1714.66 1122.5,1714.5C 1122.5,1715.5 1122.5,1716.5 1122.5,1717.5C 1120.71,1717.21 1119.05,1717.55 1117.5,1718.5C 1118.89,1719.69 1118.73,1720.35 1117,1720.5C 1116.23,1720.36 1115.56,1720.02 1115,1719.5C 1111.63,1721.88 1108.13,1724.05 1104.5,1726C 1103.17,1726.67 1103.17,1727.33 1104.5,1728C 1102.87,1728.49 1101.2,1728.66 1099.5,1728.5C 1099.5,1729.5 1099.5,1730.5 1099.5,1731.5C 1097.83,1731.5 1096.17,1731.5 1094.5,1731.5C 1094.5,1732.5 1094.5,1733.5 1094.5,1734.5C 1090.26,1734.78 1086.26,1735.95 1082.5,1738C 1083.83,1738.67 1083.83,1739.33 1082.5,1740C 1077.77,1742.37 1072.77,1744.37 1067.5,1746C 1059.01,1750.93 1050.35,1755.6 1041.5,1760C 1039.5,1760.33 1037.5,1760.67 1035.5,1761C 1035.83,1761.33 1036.17,1761.67 1036.5,1762C 1033.9,1762.92 1031.23,1763.59 1028.5,1764C 1028.83,1764.33 1029.17,1764.67 1029.5,1765C 1027.9,1765.27 1026.4,1765.77 1025,1766.5C 1023.93,1765.72 1022.76,1765.89 1021.5,1767C 1021.83,1767.33 1022.17,1767.67 1022.5,1768C 1014.81,1770.23 1007.14,1772.56 999.5,1775C 1000.83,1775.67 1000.83,1776.33 999.5,1777C 992.423,1778.7 984.756,1780.7 976.5,1783C 975.167,1783.67 975.167,1784.33 976.5,1785C 970.36,1786.1 964.36,1787.43 958.5,1789C 948.149,1793.18 937.149,1795.01 925.5,1794.5C 925.667,1691.17 925.5,1587.83 925,1484.5C 924.667,1485.5 924.333,1486.5 924,1487.5C 923.042,1485.8 922.542,1483.97 922.5,1482C 922.216,1475.76 922.549,1469.26 923.5,1462.5C 923,1460.5 922.5,1458.5 922,1456.5C 921.667,1457.17 921.333,1457.83 921,1458.5C 920.501,1453.85 920.334,1449.18 920.5,1444.5C 919.5,1444.5 918.5,1444.5 917.5,1444.5C 917.665,1441.15 917.498,1437.82 917,1434.5C 916.333,1435.83 915.667,1435.83 915,1434.5C 914.89,1430.84 913.723,1427.67 911.5,1425C 912.651,1422.32 911.651,1420.65 908.5,1420C 909.517,1418.95 909.684,1417.78 909,1416.5C 904.263,1408.94 899.763,1401.27 895.5,1393.5C 894.5,1393.5 893.5,1393.5 892.5,1393.5C 892.75,1390.5 891.417,1388.66 888.5,1388C 888.957,1387.59 889.291,1387.09 889.5,1386.5C 886.257,1383.1 883.257,1379.6 880.5,1376C 880.833,1375.67 881.167,1375.33 881.5,1375C 879.158,1372.62 876.825,1370.29 874.5,1368C 875.821,1366.46 875.488,1365.29 873.5,1364.5C 872.548,1362.95 872.215,1361.29 872.5,1359.5C 890.401,1357.11 908.067,1353.61 925.5,1349C 925.167,1348.67 924.833,1348.33 924.5,1348C 928.167,1347.67 931.833,1347.33 935.5,1347C 938.813,1344.95 942.479,1343.95 946.5,1344C 947.167,1343.33 947.833,1342.67 948.5,1342C 951.167,1341.67 953.833,1341.33 956.5,1341C 955.167,1340.33 955.167,1339.67 956.5,1339C 959.5,1338.67 962.5,1338.33 965.5,1338C 964.549,1337.28 964.383,1336.45 965,1335.5C 967.877,1336.83 970.711,1336.66 973.5,1335C 973.167,1334.67 972.833,1334.33 972.5,1334C 977.58,1332.9 982.58,1331.73 987.5,1330.5C 987.5,1329.5 987.5,1328.5 987.5,1327.5C 990.187,1327.66 992.854,1327.5 995.5,1327C 995.043,1326.59 994.709,1326.09 994.5,1325.5C 998.52,1324.38 1002.52,1323.21 1006.5,1322C 1008.71,1320.23 1011.04,1318.73 1013.5,1317.5C 1015.4,1316.53 1017.4,1316.2 1019.5,1316.5C 1019.5,1315.5 1019.5,1314.5 1019.5,1313.5C 1022.33,1313.84 1024.49,1312.84 1026,1310.5C 1026.33,1310.83 1026.67,1311.17 1027,1311.5C 1034.94,1307.36 1042.44,1302.69 1049.5,1297.5C 1050.69,1296.57 1052.02,1296.24 1053.5,1296.5C 1053.5,1295.5 1053.5,1294.5 1053.5,1293.5C 1054.83,1293.5 1056.17,1293.5 1057.5,1293.5C 1057.35,1292.45 1057.52,1291.45 1058,1290.5C 1058.33,1290.83 1058.67,1291.17 1059,1291.5C 1060.75,1289.54 1062.91,1288.54 1065.5,1288.5C 1065.5,1287.5 1065.5,1286.5 1065.5,1285.5C 1066.55,1285.65 1067.55,1285.48 1068.5,1285C 1069.83,1284.33 1069.83,1283.67 1068.5,1283C 1069.94,1282.78 1071.27,1282.28 1072.5,1281.5C 1072.29,1280.91 1071.96,1280.41 1071.5,1280C 1073.74,1279.95 1075.41,1279.12 1076.5,1277.5C 1077.5,1277.5 1078.5,1277.5 1079.5,1277.5C 1079.5,1276.5 1079.5,1275.5 1079.5,1274.5C 1080.5,1274.5 1081.5,1274.5 1082.5,1274.5C 1082.5,1273.5 1082.5,1272.5 1082.5,1271.5C 1083.5,1271.5 1084.5,1271.5 1085.5,1271.5C 1085.5,1270.5 1085.5,1269.5 1085.5,1268.5C 1086.55,1268.65 1087.55,1268.48 1088.5,1268C 1091.04,1264.69 1094.04,1261.86 1097.5,1259.5C 1098.39,1258.68 1098.72,1257.68 1098.5,1256.5C 1102.72,1253.79 1106.56,1250.46 1110,1246.5C 1115.99,1238.43 1121.82,1230.43 1127.5,1222.5C 1128.55,1222.65 1129.55,1222.48 1130.5,1222C 1130.17,1221.67 1129.83,1221.33 1129.5,1221C 1131.5,1219.18 1132.84,1217.01 1133.5,1214.5C 1135.94,1214.88 1136.61,1214.21 1135.5,1212.5C 1136.83,1210.83 1138.17,1209.17 1139.5,1207.5C 1138.39,1205.79 1139.06,1205.12 1141.5,1205.5C 1142.97,1201.89 1144.47,1198.22 1146,1194.5C 1146.33,1194.83 1146.67,1195.17 1147,1195.5C 1147.25,1193.34 1148.25,1191.67 1150,1190.5C 1150.33,1188.83 1150.67,1187.17 1151,1185.5C 1151.91,1186.65 1152.75,1186.49 1153.5,1185C 1153.03,1183.7 1153.03,1182.2 1153.5,1180.5C 1154.55,1180.65 1155.55,1180.48 1156.5,1180C 1155.59,1178.3 1155.26,1176.47 1155.5,1174.5C 1156.5,1174.5 1157.5,1174.5 1158.5,1174.5C 1159.09,1171.87 1159.42,1169.21 1159.5,1166.5C 1162.2,1166.62 1162.87,1165.62 1161.5,1163.5C 1163.7,1160.91 1164.7,1157.91 1164.5,1154.5C 1165.5,1154.5 1166.5,1154.5 1167.5,1154.5C 1167.19,1151.75 1167.52,1149.09 1168.5,1146.5C 1169.86,1143.22 1171.36,1139.88 1173,1136.5C 1173.76,1134.23 1173.59,1132.06 1172.5,1130C 1173.45,1129.52 1174.45,1129.35 1175.5,1129.5C 1176.07,1126.24 1176.23,1122.91 1176,1119.5C 1176.41,1119.96 1176.91,1120.29 1177.5,1120.5C 1178.33,1115.87 1178.83,1111.2 1179,1106.5C 1179.41,1106.96 1179.91,1107.29 1180.5,1107.5C 1181.17,1103.17 1181.83,1098.83 1182.5,1094.5C 1183.09,1094.29 1183.59,1093.96 1184,1093.5C 1184.74,1087.8 1184.58,1082.13 1183.5,1076.5C 1183.67,1075.83 1183.83,1075.17 1184,1074.5C 1185.04,1075.62 1185.71,1076.96 1186,1078.5C 1186.33,1077.17 1186.67,1075.83 1187,1074.5C 1187.21,1048.79 1187.05,1023.12 1186.5,997.5C 1185.45,997.649 1184.45,997.483 1183.5,997C 1184.92,991.8 1184.75,986.633 1183,981.5C 1182.67,981.833 1182.33,982.167 1182,982.5C 1181.67,977.833 1181.33,973.167 1181,968.5C 1180.33,967.167 1179.67,967.167 1179,968.5C 1178.67,965.167 1178.33,961.833 1178,958.5C 1177.59,958.957 1177.09,959.291 1176.5,959.5C 1175.22,956.966 1175.22,954.466 1176.5,952C 1174.6,948.418 1173.43,944.585 1173,940.5C 1170.99,938.318 1169.99,935.651 1170,932.5C 1169.33,933.167 1168.67,933.833 1168,934.5C 1167.67,931.167 1167.33,927.833 1167,924.5C 1166.33,925.833 1165.67,925.833 1165,924.5C 1164.57,921.498 1163.4,918.831 1161.5,916.5C 1162.61,915.035 1162.11,914.035 1160,913.5C 1160.22,910.175 1158.89,907.842 1156,906.5C 1155.38,905.551 1155.55,904.718 1156.5,904C 1154.83,903 1153.5,901.667 1152.5,900C 1153.53,898.493 1153.37,896.993 1152,895.5C 1151.67,895.833 1151.33,896.167 1151,896.5C 1150.67,894.5 1150.33,892.5 1150,890.5C 1148.15,886.725 1146.15,883.058 1144,879.5C 1143.67,879.833 1143.33,880.167 1143,880.5C 1142.19,878.564 1141.69,876.564 1141.5,874.5C 1140.45,874.649 1139.45,874.483 1138.5,874C 1138.83,873.667 1139.17,873.333 1139.5,873C 1135.38,868.064 1132.38,862.564 1130.5,856.5C 1129.5,856.5 1128.5,856.5 1127.5,856.5C 1127.64,853.267 1126.47,850.601 1124,848.5C 1123.67,848.833 1123.33,849.167 1123,849.5C 1122.27,845.113 1120.27,841.447 1117,838.5C 1116.51,837.207 1116.34,835.873 1116.5,834.5C 1115.5,834.5 1114.5,834.5 1113.5,834.5C 1114.12,830.995 1113.12,828.162 1110.5,826C 1111.51,825.645 1112.18,824.812 1112.5,823.5C 1113.32,820.695 1113.82,817.695 1114,814.5C 1114.42,813.328 1115.09,812.328 1116,811.5C 1117.12,804.517 1118.12,797.517 1119,790.5C 1119.67,789.167 1120.33,789.167 1121,790.5C 1121.05,775.017 1122.22,759.85 1124.5,745C 1124.33,738.833 1124.17,732.667 1124,726.5C 1123.09,725.672 1122.42,724.672 1122,723.5C 1121.67,716.5 1121.33,709.5 1121,702.5C 1120.33,703.833 1119.67,703.833 1119,702.5C 1117.82,690.273 1115.99,678.273 1113.5,666.5C 1112.5,666.5 1111.5,666.5 1110.5,666.5C 1109.39,661.185 1108.39,655.185 1107.5,648.5C 1106.5,648.5 1105.5,648.5 1104.5,648.5C 1104.32,646.409 1104.65,644.409 1105.5,642.5C 1104.68,641.614 1103.68,641.281 1102.5,641.5C 1102.5,642.5 1102.5,643.5 1102.5,644.5C 1097.49,644.334 1092.49,644.501 1087.5,645C 1086.37,646.016 1086.7,646.683 1088.5,647C 1079.84,647.5 1071.17,647.666 1062.5,647.5C 1062.5,648.5 1062.5,649.5 1062.5,650.5C 1058.03,649.911 1054.03,650.577 1050.5,652.5C 1047.35,652.211 1044.35,652.711 1041.5,654C 1041.83,654.333 1042.17,654.667 1042.5,655C 1039.83,655.333 1037.17,655.667 1034.5,656C 1033.17,656.667 1033.17,657.333 1034.5,658C 1032.19,658.497 1029.86,658.663 1027.5,658.5C 1027.5,659.5 1027.5,660.5 1027.5,661.5C 1025.47,661.338 1023.47,661.505 1021.5,662C 1017.92,664.423 1013.92,666.09 1009.5,667C 1008.3,669.692 1006.46,670.526 1004,669.5C 1003.78,670.938 1003.28,672.271 1002.5,673.5C 1001.91,673.291 1001.41,672.957 1001,672.5C 998.491,674.437 995.657,675.437 992.5,675.5C 992.5,676.5 992.5,677.5 992.5,678.5C 990.801,678.34 989.134,678.506 987.5,679C 977.012,684.998 966.345,690.998 955.5,697C 955.833,697.333 956.167,697.667 956.5,698C 952.32,698.978 948.654,700.978 945.5,704C 942.661,705.657 939.661,706.99 936.5,708C 937.654,708.914 937.487,709.747 936,710.5C 934.951,709.483 933.784,709.316 932.5,710C 930.638,711.756 928.638,713.256 926.5,714.5C 924.955,715.452 923.288,715.785 921.5,715.5C 921.5,716.5 921.5,717.5 921.5,718.5C 917.774,718.823 914.107,718.489 910.5,717.5C 910.291,716.914 909.957,716.414 909.5,716C 905.789,715.825 902.122,715.325 898.5,714.5C 898.291,713.914 897.957,713.414 897.5,713C 892.858,713.038 888.525,712.038 884.5,710C 880.833,709.667 877.167,709.333 873.5,709C 873.833,708.667 874.167,708.333 874.5,708C 869.177,707.501 863.844,707.334 858.5,707.5C 858.5,706.5 858.5,705.5 858.5,704.5C 853.489,704.666 848.489,704.499 843.5,704C 842.833,703.333 842.167,702.667 841.5,702C 835.167,701.667 828.833,701.333 822.5,701C 821.377,699.956 820.044,699.29 818.5,699C 809.167,698.667 799.833,698.333 790.5,698C 792.167,697.667 793.833,697.333 795.5,697C 790.961,696.747 786.461,696.247 782,695.5C 765.376,695.521 748.709,695.521 732,695.5C 727.92,696.3 723.753,696.8 719.5,697C 721.167,697.333 722.833,697.667 724.5,698C 715.167,698.333 705.833,698.667 696.5,699C 694.956,699.29 693.623,699.956 692.5,701C 685.833,701.333 679.167,701.667 672.5,702C 672.043,702.414 671.709,702.914 671.5,703.5C 666.198,704.329 660.864,704.829 655.5,705C 655.957,705.414 656.291,705.914 656.5,706.5C 651.198,707.329 645.864,707.829 640.5,708C 641.604,709.131 641.271,709.965 639.5,710.5C 635.61,708.946 631.943,709.279 628.5,711.5C 624.878,712.325 621.211,712.825 617.5,713C 617.043,713.414 616.709,713.914 616.5,714.5C 612.878,715.325 609.211,715.825 605.5,716C 602.301,718.277 598.635,719.11 594.5,718.5C 594.5,717.5 594.5,716.5 594.5,715.5C 592.396,715.799 590.396,715.466 588.5,714.5C 585.936,712.965 583.436,711.299 581,709.5C 578.922,710.943 578.089,710.276 578.5,707.5C 577.127,707.657 575.793,707.49 574.5,707C 573.167,706.333 573.167,705.667 574.5,705C 566.819,700.711 558.819,696.711 550.5,693C 545.782,688.81 540.449,685.977 534.5,684.5C 534.5,683.5 534.5,682.5 534.5,681.5C 533.127,681.657 531.793,681.49 530.5,681C 526.259,677.76 521.759,674.927 517,672.5C 516.282,673.451 515.449,673.617 514.5,673C 513.789,671.745 512.956,670.579 512,669.5C 509.536,670.526 507.702,669.692 506.5,667C 502.479,665.892 498.812,664.225 495.5,662C 491.552,660.489 486.885,659.156 481.5,658C 482.833,657.333 482.833,656.667 481.5,656C 478.349,656.012 475.682,655.012 473.5,653C 470.854,652.503 468.187,652.336 465.5,652.5C 461.614,650.725 457.28,649.892 452.5,650C 452.957,649.586 453.291,649.086 453.5,648.5C 445.521,647.668 437.521,647.168 429.5,647C 430.833,646.333 430.833,645.667 429.5,645C 423.833,644.667 418.167,644.333 412.5,644C 413.524,642.633 413.024,641.8 411,641.5C 410.5,641.833 410,642.167 409.5,642.5C 411.129,645.331 410.629,647.665 408,649.5C 407.667,652.167 407.333,654.833 407,657.5C 406.586,657.957 406.086,658.291 405.5,658.5C 402.923,664.642 400.756,670.975 399,677.5C 398.248,680.894 398.415,684.227 399.5,687.5C 398.675,688.386 397.675,688.719 396.5,688.5C 396.666,693.179 396.499,697.845 396,702.5C 395.333,703.833 394.667,703.833 394,702.5C 393.667,709.167 393.333,715.833 393,722.5C 392.333,723.167 391.667,723.833 391,724.5C 390.333,737.833 390.333,751.167 391,764.5C 391.667,765.167 392.333,765.833 393,766.5C 393.333,774.5 393.667,782.5 394,790.5C 394.667,789.167 395.333,789.167 396,790.5C 397.576,801.685 399.409,812.685 401.5,823.5C 402.5,823.5 403.5,823.5 404.5,823.5C 402.626,831.709 398.626,838.709 392.5,844.5C 393.609,846.214 392.942,846.881 390.5,846.5C 387.876,851.673 384.876,856.673 381.5,861.5C 380.624,862.251 379.624,862.751 378.5,863C 379.622,864.613 379.122,865.78 377,866.5C 373.761,874.039 369.761,881.039 365,887.5C 364.529,890.471 363.362,893.138 361.5,895.5C 361.833,896.167 362.167,896.833 362.5,897.5C 359.58,898.362 358.58,900.028 359.5,902.5C 359,903.5 358.5,904.5 358,905.5C 357.333,904.167 356.667,904.167 356,905.5C 355.316,906.784 355.483,907.951 356.5,909C 354.855,910.8 353.522,912.8 352.5,915C 353.603,916.68 353.27,918.18 351.5,919.5C 350.52,922.086 350.187,924.753 350.5,927.5C 349.5,927.5 348.5,927.5 347.5,927.5C 347.817,930.572 347.484,933.572 346.5,936.5C 345.914,936.291 345.414,935.957 345,935.5C 344.667,937.833 344.333,940.167 344,942.5C 342.984,941.366 342.317,941.699 342,943.5C 341.248,946.894 341.415,950.227 342.5,953.5C 341.645,954.293 340.811,953.96 340,952.5C 338.287,955.917 338.12,959.417 339.5,963C 339.167,964.5 338.833,966 338.5,967.5C 337.914,967.291 337.414,966.957 337,966.5C 336.501,970.486 336.334,974.486 336.5,978.5C 335.5,978.5 334.5,978.5 333.5,978.5C 333.666,984.842 333.5,991.175 333,997.5C 332.667,997.167 332.333,996.833 332,996.5C 330.196,1006.45 330.029,1016.45 331.5,1026.5C 330.728,1028.71 329.895,1028.37 329,1025.5C 328.17,1031.2 328.337,1036.86 329.5,1042.5C 330.5,1042.83 331.167,1043.5 331.5,1044.5C 330.353,1057.45 330.186,1070.45 331,1083.5C 331.317,1085.3 331.984,1085.63 333,1084.5C 333.333,1090.5 333.667,1096.5 334,1102.5C 335.016,1103.63 335.683,1103.3 336,1101.5C 336.17,1107.2 336.67,1112.86 337.5,1118.5C 338.086,1118.29 338.586,1117.96 339,1117.5C 339.167,1118.67 339.333,1119.83 339.5,1121C 338.302,1123.87 338.302,1126.7 339.5,1129.5C 342.39,1129.42 343.057,1130.92 341.5,1134C 343.645,1137.75 344.645,1141.92 344.5,1146.5C 345.5,1146.5 346.5,1146.5 347.5,1146.5C 347.5,1149.17 347.5,1151.83 347.5,1154.5C 348.5,1154.5 349.5,1154.5 350.5,1154.5C 350.302,1157.91 351.302,1160.91 353.5,1163.5C 352.128,1165.62 352.795,1166.62 355.5,1166.5C 355.575,1169.21 355.908,1171.87 356.5,1174.5C 357.5,1174.5 358.5,1174.5 359.5,1174.5C 359.739,1176.47 359.406,1178.3 358.5,1180C 359.448,1180.48 360.448,1180.65 361.5,1180.5C 361.966,1182.2 361.966,1183.7 361.5,1185C 362.253,1186.49 363.086,1186.65 364,1185.5C 364.333,1187.17 364.667,1188.83 365,1190.5C 366.755,1191.67 367.755,1193.34 368,1195.5C 368.333,1195.17 368.667,1194.83 369,1194.5C 370.534,1198.22 372.034,1201.89 373.5,1205.5C 375.942,1205.12 376.609,1205.79 375.5,1207.5C 376.833,1209.17 378.167,1210.83 379.5,1212.5C 378.391,1214.21 379.058,1214.88 381.5,1214.5C 382.164,1217.01 383.497,1219.18 385.5,1221C 385.167,1221.33 384.833,1221.67 384.5,1222C 385.448,1222.48 386.448,1222.65 387.5,1222.5C 394.999,1234.3 403.666,1245.3 413.5,1255.5C 414.325,1256.39 415.325,1256.72 416.5,1256.5C 418.084,1259.96 420.417,1262.96 423.5,1265.5C 425.071,1267.42 427.071,1268.42 429.5,1268.5C 429.5,1269.5 429.5,1270.5 429.5,1271.5C 430.5,1271.5 431.5,1271.5 432.5,1271.5C 432.5,1272.5 432.5,1273.5 432.5,1274.5C 433.5,1274.5 434.5,1274.5 435.5,1274.5C 435.5,1275.5 435.5,1276.5 435.5,1277.5C 436.5,1277.5 437.5,1277.5 438.5,1277.5C 439.589,1279.12 441.256,1279.95 443.5,1280C 443.043,1280.41 442.709,1280.91 442.5,1281.5C 443.729,1282.28 445.062,1282.78 446.5,1283C 445.167,1283.67 445.167,1284.33 446.5,1285C 447.448,1285.48 448.448,1285.65 449.5,1285.5C 449.5,1286.5 449.5,1287.5 449.5,1288.5C 452.088,1288.54 454.254,1289.54 456,1291.5C 456.333,1291.17 456.667,1290.83 457,1290.5C 457.483,1291.45 457.649,1292.45 457.5,1293.5C 458.833,1293.5 460.167,1293.5 461.5,1293.5C 461.5,1294.5 461.5,1295.5 461.5,1296.5C 462.978,1296.24 464.311,1296.57 465.5,1297.5C 472.557,1302.69 480.057,1307.36 488,1311.5C 489.131,1310.4 489.965,1310.73 490.5,1312.5C 492.045,1313.45 493.712,1313.79 495.5,1313.5C 495.5,1314.5 495.5,1315.5 495.5,1316.5C 497.604,1316.2 499.604,1316.53 501.5,1317.5C 503.958,1318.73 506.292,1320.23 508.5,1322C 512.48,1323.21 516.48,1324.38 520.5,1325.5C 520.291,1326.09 519.957,1326.59 519.5,1327C 522.146,1327.5 524.813,1327.66 527.5,1327.5C 527.5,1328.5 527.5,1329.5 527.5,1330.5C 532.42,1331.73 537.42,1332.9 542.5,1334C 541.366,1335.02 541.699,1335.68 543.5,1336C 545.769,1336.76 547.936,1336.59 550,1335.5C 550.617,1336.45 550.451,1337.28 549.5,1338C 552.5,1338.33 555.5,1338.67 558.5,1339C 559.833,1339.67 559.833,1340.33 558.5,1341C 561.167,1341.33 563.833,1341.67 566.5,1342C 567.167,1342.67 567.833,1343.33 568.5,1344C 572.521,1343.95 576.187,1344.95 579.5,1347C 583.167,1347.33 586.833,1347.67 590.5,1348C 589.366,1349.02 589.699,1349.68 591.5,1350C 608.358,1353.96 625.358,1357.13 642.5,1359.5C 642.738,1362.41 641.738,1364.74 639.5,1366.5C 639.709,1367.09 640.043,1367.59 640.5,1368C 638.175,1370.29 635.842,1372.62 633.5,1375C 633.833,1375.33 634.167,1375.67 634.5,1376C 633.584,1376.37 632.75,1376.87 632,1377.5C 628.15,1383.27 624.15,1388.94 620,1394.5C 617.607,1397.95 615.774,1401.62 614.5,1405.5C 613.5,1405.5 612.5,1405.5 611.5,1405.5C 610.154,1409.04 609.154,1412.7 608.5,1416.5C 607.5,1416.5 606.5,1416.5 605.5,1416.5C 605.261,1418.47 605.594,1420.3 606.5,1422C 605.551,1422.62 604.718,1422.45 604,1421.5C 603.667,1424.17 603.333,1426.83 603,1429.5C 602.333,1430.83 601.667,1430.83 601,1429.5C 600.502,1432.48 600.335,1435.48 600.5,1438.5C 599.5,1438.5 598.5,1438.5 597.5,1438.5C 597.665,1441.52 597.498,1444.52 597,1447.5C 596.333,1448.17 595.667,1448.83 595,1449.5C 594.667,1454.83 594.333,1460.17 594,1465.5C 593.667,1464.83 593.333,1464.17 593,1463.5C 592.289,1466.88 590.122,1468.38 586.5,1468C 584.699,1468.32 584.366,1468.98 585.5,1470C 582.5,1470.33 579.5,1470.67 576.5,1471C 575.833,1471.67 575.167,1472.33 574.5,1473C 570.5,1473.33 566.5,1473.67 562.5,1474C 562.043,1474.41 561.709,1474.91 561.5,1475.5C 549.848,1476.67 538.181,1476.83 526.5,1476C 526.043,1475.59 525.709,1475.09 525.5,1474.5C 519.061,1474.11 513.061,1472.61 507.5,1470C 507.833,1469.67 508.167,1469.33 508.5,1469C 502.115,1467.39 496.781,1464.23 492.5,1459.5C 490.698,1458.01 488.698,1457.01 486.5,1456.5C 486.5,1455.5 486.5,1454.5 486.5,1453.5C 485.127,1453.66 483.793,1453.49 482.5,1453C 483.609,1451.19 482.942,1450.35 480.5,1450.5C 478.965,1447.77 477.131,1445.1 475,1442.5C 474.333,1441.17 473.667,1441.17 473,1442.5C 472.51,1441.21 472.343,1439.87 472.5,1438.5C 471.5,1438.5 470.5,1438.5 469.5,1438.5C 469.785,1436.71 469.452,1435.05 468.5,1433.5C 465.694,1431.52 463.861,1428.86 463,1425.5C 462.333,1424.17 461.667,1424.17 461,1425.5C 460.383,1424.55 460.549,1423.72 461.5,1423C 460.421,1422.04 459.255,1421.21 458,1420.5C 449.963,1406.89 439.796,1393.39 427.5,1380C 425.5,1378.67 423.5,1377.33 421.5,1376C 421.833,1375.67 422.167,1375.33 422.5,1375C 421.167,1374.33 419.833,1373.67 418.5,1373C 418.833,1372.67 419.167,1372.33 419.5,1372C 418.167,1371.33 416.833,1370.67 415.5,1370C 415.833,1369.67 416.167,1369.33 416.5,1369C 414.473,1367.12 412.14,1365.95 409.5,1365.5C 409.5,1364.5 409.5,1363.5 409.5,1362.5C 408.127,1362.66 406.793,1362.49 405.5,1362C 406.833,1361.33 406.833,1360.67 405.5,1360C 404.167,1359.67 402.833,1359.33 401.5,1359C 402.833,1358.33 402.833,1357.67 401.5,1357C 399.409,1355.27 397.076,1354.11 394.5,1353.5C 393.051,1351.84 391.051,1351 388.5,1351C 388.957,1350.59 389.291,1350.09 389.5,1349.5C 387.577,1348.69 385.577,1348.19 383.5,1348C 383.833,1347.67 384.167,1347.33 384.5,1347C 381.124,1344 377.124,1342.33 372.5,1342C 372.833,1341.67 373.167,1341.33 373.5,1341C 371.246,1339.35 368.912,1339.18 366.5,1340.5C 366.874,1339.23 366.208,1338.06 364.5,1337C 361.512,1336.78 358.845,1335.78 356.5,1334C 348.369,1332.12 340.036,1331.12 331.5,1331C 332.833,1330.33 332.833,1329.67 331.5,1329C 324.167,1328.33 316.833,1328.33 309.5,1329C 310.313,1335.42 310.813,1341.92 311,1348.5C 311.29,1350.04 311.956,1351.38 313,1352.5C 313.333,1362.17 313.667,1371.83 314,1381.5C 314.333,1382.5 314.667,1383.5 315,1384.5C 315.333,1384.17 315.667,1383.83 316,1383.5C 316.5,1392.49 316.666,1401.49 316.5,1410.5C 322.206,1410.17 327.872,1410.5 333.5,1411.5C 337.522,1413.77 341.855,1415.11 346.5,1415.5C 346.5,1416.5 346.5,1417.5 346.5,1418.5C 351.77,1420.24 356.27,1423.24 360,1427.5C 360.914,1426.35 361.747,1426.51 362.5,1428C 362.167,1428.33 361.833,1428.67 361.5,1429C 363.044,1429.29 364.377,1429.96 365.5,1431C 365.167,1431.33 364.833,1431.67 364.5,1432C 365.448,1432.48 366.448,1432.65 367.5,1432.5C 367.281,1433.68 367.614,1434.68 368.5,1435.5C 369.695,1437.3 371.362,1438.3 373.5,1438.5C 373.5,1439.5 373.5,1440.5 373.5,1441.5C 374.675,1441.28 375.675,1441.61 376.5,1442.5C 384.897,1453.72 393.063,1465.05 401,1476.5C 401.494,1478.13 401.66,1479.8 401.5,1481.5C 402.5,1481.5 403.5,1481.5 404.5,1481.5C 410.143,1491.98 417.476,1501.15 426.5,1509C 427.449,1509.62 428.282,1509.45 429,1508.5C 428.04,1511.25 429.207,1512.75 432.5,1513C 432.167,1513.33 431.833,1513.67 431.5,1514C 434.047,1517.44 437.38,1519.6 441.5,1520.5C 441.5,1521.5 441.5,1522.5 441.5,1523.5C 444.323,1524.22 446.99,1525.22 449.5,1526.5C 449.5,1527.5 449.5,1528.5 449.5,1529.5C 451.199,1529.34 452.866,1529.51 454.5,1530C 454.167,1530.33 453.833,1530.67 453.5,1531C 456.583,1532.93 459.917,1534.09 463.5,1534.5C 463.5,1535.5 463.5,1536.5 463.5,1537.5C 465.199,1537.34 466.866,1537.51 468.5,1538C 470.981,1539.87 473.647,1541.54 476.5,1543C 485.176,1545.18 493.51,1548.18 501.5,1552C 513.101,1553.72 524.767,1554.72 536.5,1555C 535.5,1555.33 534.5,1555.67 533.5,1556C 533.833,1556.33 534.167,1556.67 534.5,1557C 541.192,1557.83 547.858,1557.66 554.5,1556.5C 553.271,1555.72 551.938,1555.22 550.5,1555C 559.833,1554.67 569.167,1554.33 578.5,1554C 577.549,1553.28 577.383,1552.45 578,1551.5C 581.667,1552.17 585.333,1552.83 589,1553.5C 589.5,1633.83 589.667,1714.17 589.5,1794.5C 577.851,1795.01 566.851,1793.18 556.5,1789C 550.64,1787.43 544.64,1786.1 538.5,1785C 539.833,1784.33 539.833,1783.67 538.5,1783C 530.244,1780.7 522.577,1778.7 515.5,1777C 514.167,1776.33 514.167,1775.67 515.5,1775C 507.861,1772.56 500.194,1770.23 492.5,1768C 492.833,1767.67 493.167,1767.33 493.5,1767C 492.24,1765.89 491.073,1765.72 490,1766.5C 488.601,1765.77 487.101,1765.27 485.5,1765C 485.833,1764.67 486.167,1764.33 486.5,1764C 483.768,1763.59 481.101,1762.92 478.5,1762C 478.833,1761.67 479.167,1761.33 479.5,1761C 477.5,1760.67 475.5,1760.33 473.5,1760C 464.653,1755.6 455.986,1750.93 447.5,1746C 442.226,1744.37 437.226,1742.37 432.5,1740C 431.167,1739.33 431.167,1738.67 432.5,1738C 428.739,1735.95 424.739,1734.78 420.5,1734.5C 420.5,1733.5 420.5,1732.5 420.5,1731.5C 418.833,1731.5 417.167,1731.5 415.5,1731.5C 415.5,1730.5 415.5,1729.5 415.5,1728.5C 413.801,1728.66 412.134,1728.49 410.5,1728C 411.833,1727.33 411.833,1726.67 410.5,1726C 406.872,1724.05 403.372,1721.88 400,1719.5C 398.951,1720.52 397.784,1720.68 396.5,1720C 396.957,1719.59 397.291,1719.09 397.5,1718.5C 395.955,1717.55 394.288,1717.21 392.5,1717.5C 392.5,1716.5 392.5,1715.5 392.5,1714.5C 390.801,1714.66 389.134,1714.49 387.5,1714C 388.833,1713.33 388.833,1712.67 387.5,1712C 386.207,1711.51 384.873,1711.34 383.5,1711.5C 382.724,1709.03 381.224,1708.36 379,1709.5C 378.517,1708.55 378.351,1707.55 378.5,1706.5C 376.801,1706.66 375.134,1706.49 373.5,1706C 373.957,1705.59 374.291,1705.09 374.5,1704.5C 366.475,1700.32 359.141,1695.15 352.5,1689C 348.713,1687.11 345.046,1685.27 341.5,1683.5C 341.5,1682.5 341.5,1681.5 341.5,1680.5C 337.358,1679.1 333.691,1676.76 330.5,1673.5C 329.271,1672.72 327.938,1672.22 326.5,1672C 325.167,1671.33 325.167,1670.67 326.5,1670C 325.207,1669.51 323.873,1669.34 322.5,1669.5C 322.5,1668.5 322.5,1667.5 322.5,1666.5C 319.643,1665.67 316.977,1664.33 314.5,1662.5C 310.845,1659.01 307.345,1655.34 304,1651.5C 303.586,1651.96 303.086,1652.29 302.5,1652.5C 302.662,1650.37 301.329,1649.37 298.5,1649.5C 298.5,1648.5 298.5,1647.5 298.5,1646.5C 296.328,1645.2 293.995,1644.2 291.5,1643.5C 291.646,1641.06 290.813,1640.39 289,1641.5C 288.667,1640.5 288.333,1639.5 288,1638.5C 285.833,1636.33 283.667,1634.17 281.5,1632C 279.783,1630.44 277.783,1629.61 275.5,1629.5C 275.5,1628.5 275.5,1627.5 275.5,1626.5C 274.5,1626.5 273.5,1626.5 272.5,1626.5C 272.5,1625.5 272.5,1624.5 272.5,1623.5C 271.127,1623.66 269.793,1623.49 268.5,1623C 269.833,1622.33 269.833,1621.67 268.5,1621C 267.1,1619.56 265.433,1618.73 263.5,1618.5C 263.5,1617.5 263.5,1616.5 263.5,1615.5C 262.448,1615.65 261.448,1615.48 260.5,1615C 260.833,1614.67 261.167,1614.33 261.5,1614C 257.323,1610.46 253.823,1606.96 251,1603.5C 249.334,1604.34 249.167,1603.84 250.5,1602C 249.552,1601.52 248.552,1601.35 247.5,1601.5C 247.5,1600.5 247.5,1599.5 247.5,1598.5C 246.5,1598.5 245.5,1598.5 244.5,1598.5C 244.5,1597.5 244.5,1596.5 244.5,1595.5C 243.5,1595.5 242.5,1595.5 241.5,1595.5C 239.167,1590.5 235.5,1586.83 230.5,1584.5C 228.795,1581.46 226.795,1578.46 224.5,1575.5C 223.305,1573.7 221.638,1572.7 219.5,1572.5C 217.813,1567.78 215.147,1563.78 211.5,1560.5C 209.721,1559.33 208.721,1557.66 208.5,1555.5C 207.5,1555.5 206.5,1555.5 205.5,1555.5C 204.36,1553.53 203.36,1550.87 202.5,1547.5C 201.5,1547.5 200.5,1547.5 199.5,1547.5C 199.5,1546.5 199.5,1545.5 199.5,1544.5C 198.448,1544.65 197.448,1544.48 196.5,1544C 197.451,1543.28 197.617,1542.45 197,1541.5C 195.494,1539.83 193.661,1538.83 191.5,1538.5C 191.5,1537.5 191.5,1536.5 191.5,1535.5C 190.448,1535.65 189.448,1535.48 188.5,1535C 188.5,1533.67 188.5,1532.33 188.5,1531C 187.552,1530.52 186.552,1530.35 185.5,1530.5C 185.649,1529.45 185.483,1528.45 185,1527.5C 183.414,1526.39 182.248,1525.06 181.5,1523.5C 180.024,1521.23 178.524,1518.9 177,1516.5C 176.333,1515.17 175.667,1515.17 175,1516.5C 173.073,1511.65 170.906,1506.98 168.5,1502.5C 167.5,1502.5 166.5,1502.5 165.5,1502.5C 161.78,1494.59 156.78,1487.42 150.5,1481C 150.833,1480.67 151.167,1480.33 151.5,1480C 144.919,1470.12 138.585,1459.95 132.5,1449.5C 131.548,1447.95 131.215,1446.29 131.5,1444.5C 130.5,1444.5 129.5,1444.5 128.5,1444.5C 128.627,1440.29 126.96,1436.95 123.5,1434.5C 121.394,1429.34 119.228,1424.34 117,1419.5C 116.333,1418.17 115.667,1418.17 115,1419.5C 113.924,1415.35 112.591,1411.35 111,1407.5C 110.586,1407.96 110.086,1408.29 109.5,1408.5C 108.998,1405.03 107.664,1402.03 105.5,1399.5C 106.911,1397.98 106.744,1396.65 105,1395.5C 104.667,1395.83 104.333,1396.17 104,1396.5C 103.505,1394.53 103.338,1392.53 103.5,1390.5C 102.5,1390.5 101.5,1390.5 100.5,1390.5C 100.662,1388.47 100.495,1386.47 100,1384.5C 99.3333,1385.83 98.6667,1385.83 98,1384.5C 96,1380.5 94,1376.5 92,1372.5C 91.8221,1368.79 90.6555,1365.45 88.5,1362.5C 89.8199,1359.94 88.9866,1358.28 86,1357.5C 85.6667,1355.17 85.3333,1352.83 85,1350.5C 83.984,1351.63 83.3173,1351.3 83,1349.5C 82.6667,1347.5 82.3333,1345.5 82,1343.5C 81.6667,1343.83 81.3333,1344.17 81,1344.5C 80.6667,1342.17 80.3333,1339.83 80,1337.5C 77.2999,1332.15 74.6332,1326.81 72,1321.5C 71.7489,1319.57 71.2489,1317.73 70.5,1316C 70.8333,1315.67 71.1667,1315.33 71.5,1315C 70.5838,1314.63 69.7504,1314.13 69,1313.5C 66,1302.17 63,1290.83 60,1279.5C 59.6827,1277.7 59.016,1277.37 58,1278.5C 57.5017,1275.18 57.335,1271.85 57.5,1268.5C 56.5,1268.5 55.5,1268.5 54.5,1268.5C 52.6922,1262.39 51.5255,1255.39 51,1247.5C 50.3333,1248.83 49.6667,1248.83 49,1247.5C 48.6667,1242.83 48.3333,1238.17 48,1233.5C 47.5488,1235.93 46.7155,1236.1 45.5,1234C 46.626,1230.26 46.7927,1226.42 46,1222.5C 43.962,1218.48 42.962,1214.14 43,1209.5C 42.3333,1208.83 41.6667,1208.17 41,1207.5C 40.6667,1203.5 40.3333,1199.5 40,1195.5C 39.3333,1194.83 38.6667,1194.17 38,1193.5C 37.6667,1186.83 37.3333,1180.17 37,1173.5C 36.3333,1172.17 35.6667,1172.17 35,1173.5C 34.1806,1159.82 33.1806,1146.15 32,1132.5C 31.3333,1090.83 31.3333,1049.17 32,1007.5C 32.1153,991.975 33.2819,976.641 35.5,961.5C 36.086,961.291 36.586,960.957 37,960.5C 37.1705,955.136 37.6705,949.802 38.5,944.5C 39.086,944.291 39.586,943.957 40,943.5C 40.3333,938.833 40.6667,934.167 41,929.5C 41.6667,928.833 42.3333,928.167 43,927.5C 43.3333,922.833 43.6667,918.167 44,913.5C 44.6667,914.833 45.3333,914.833 46,913.5C 46.7886,909.909 46.6219,906.409 45.5,903C 46.2529,901.513 47.0862,901.346 48,902.5C 48.3333,898.5 48.6667,894.5 49,890.5C 49.6667,889.167 50.3333,889.167 51,890.5C 51.3333,887.167 51.6667,883.833 52,880.5C 54.0923,877.627 55.0923,874.293 55,870.5C 55.3173,868.699 55.984,868.366 57,869.5C 57.8757,862.675 59.209,856.009 61,849.5C 61.3333,849.833 61.6667,850.167 62,850.5C 64.3958,842.424 66.8958,834.424 69.5,826.5C 70.1174,826.389 70.6174,826.056 71,825.5C 72.577,820.31 73.9103,814.977 75,809.5C 75.6667,808.167 76.3333,808.167 77,809.5C 77.0475,806.671 78.0475,804.337 80,802.5C 81.4544,794.903 83.7877,787.57 87,780.5C 87.805,782.901 88.6383,782.734 89.5,780C 89.1459,778.374 89.1459,776.541 89.5,774.5C 92.6127,774.935 93.2793,773.935 91.5,771.5C 96.6641,762.023 101.664,752.357 106.5,742.5C 105.391,740.786 106.058,740.119 108.5,740.5C 109.975,737 110.975,733.333 111.5,729.5C 112.5,729.5 113.5,729.5 114.5,729.5C 114.338,727.473 114.505,725.473 115,723.5C 115.667,724.833 116.333,724.833 117,723.5C 120.112,716.616 123.779,709.95 128,703.5C 128.494,701.866 128.66,700.199 128.5,698.5C 129.5,698.5 130.5,698.5 131.5,698.5C 132.542,694.75 134.376,691.416 137,688.5C 137.494,686.866 137.66,685.199 137.5,683.5C 139.942,683.646 140.609,682.813 139.5,681C 140.448,680.517 141.448,680.351 142.5,680.5C 142.421,679.07 142.754,677.736 143.5,676.5C 146.421,672.98 149.088,669.313 151.5,665.5C 152.846,661.601 155.346,657.935 159,654.5C 165.348,645.123 171.682,635.79 178,626.5C 178.914,627.654 179.747,627.487 180.5,626C 180.043,625.586 179.709,625.086 179.5,624.5C 181.631,624.662 182.631,623.329 182.5,620.5C 183.5,620.5 184.5,620.5 185.5,620.5C 185.966,618.799 185.966,617.299 185.5,616C 186.448,615.517 187.448,615.351 188.5,615.5C 188.5,614.5 188.5,613.5 188.5,612.5C 189.5,612.5 190.5,612.5 191.5,612.5C 193.781,609.657 195.781,605.991 197.5,601.5C 198.5,601.5 199.5,601.5 200.5,601.5C 200.351,600.448 200.517,599.448 201,598.5C 201.333,598.833 201.667,599.167 202,599.5C 202.333,598.5 202.667,597.5 203,596.5C 203.667,595.167 204.333,595.167 205,596.5C 205.333,595.167 205.667,593.833 206,592.5C 206.667,593.833 207.333,593.833 208,592.5C 209.122,590.58 209.956,588.58 210.5,586.5C 214.086,584.914 216.753,582.247 218.5,578.5C 222.963,574.344 227.296,570.177 231.5,566C 231.167,565.667 230.833,565.333 230.5,565C 232.564,564.347 234.231,563.18 235.5,561.5C 236.386,560.675 236.719,559.675 236.5,558.5C 237.675,558.719 238.675,558.386 239.5,557.5C 246.514,550.152 253.848,543.152 261.5,536.5C 262.386,535.675 262.719,534.675 262.5,533.5C 263.5,533.5 264.5,533.5 265.5,533.5C 265.5,532.5 265.5,531.5 265.5,530.5C 266.552,530.649 267.552,530.483 268.5,530C 270.456,527.528 272.789,525.695 275.5,524.5C 275.5,523.5 275.5,522.5 275.5,521.5C 276.873,521.657 278.207,521.49 279.5,521C 278.137,518.871 278.471,518.371 280.5,519.5C 281.695,517.703 283.362,516.703 285.5,516.5C 285.5,515.5 285.5,514.5 285.5,513.5C 286.5,513.5 287.5,513.5 288.5,513.5C 288.5,512.5 288.5,511.5 288.5,510.5C 289.5,510.5 290.5,510.5 291.5,510.5C 291.5,509.5 291.5,508.5 291.5,507.5C 294.014,507.246 296.348,506.413 298.5,505C 299.833,504.333 299.833,503.667 298.5,503C 300.933,501.87 303.266,500.704 305.5,499.5C 305.513,496.639 306.679,495.639 309,496.5C 309.483,495.552 309.649,494.552 309.5,493.5C 310.833,493.5 312.167,493.5 313.5,493.5C 313.5,492.5 313.5,491.5 313.5,490.5C 314.5,490.5 315.5,490.5 316.5,490.5C 316.5,489.5 316.5,488.5 316.5,487.5C 317.833,487.5 319.167,487.5 320.5,487.5C 320.5,486.5 320.5,485.5 320.5,484.5C 323.168,484.334 325.502,483.334 327.5,481.5C 333.981,476.099 340.981,470.599 348.5,465C 349.793,464.51 351.127,464.343 352.5,464.5C 352.119,462.058 352.786,461.391 354.5,462.5C 356.697,460.575 359.031,458.908 361.5,457.5C 362.689,456.571 364.022,456.238 365.5,456.5C 365.5,455.5 365.5,454.5 365.5,453.5C 366.833,453.5 368.167,453.5 369.5,453.5C 369.5,452.5 369.5,451.5 369.5,450.5C 371.167,450.5 372.833,450.5 374.5,450.5C 374.119,448.058 374.786,447.391 376.5,448.5C 378.009,446.576 380.009,445.409 382.5,445C 383.67,443.245 385.337,442.245 387.5,442C 388.833,441.333 388.833,440.667 387.5,440C 389.473,439.505 391.473,439.338 393.5,439.5C 393.5,438.5 393.5,437.5 393.5,436.5C 395.167,436.5 396.833,436.5 398.5,436.5C 398.5,435.5 398.5,434.5 398.5,433.5C 400.167,433.5 401.833,433.5 403.5,433.5C 403.354,431.058 404.187,430.391 406,431.5C 406.75,430.874 407.584,430.374 408.5,430C 407.289,429.107 407.289,428.274 408.5,427.5C 410.343,428.939 412.01,428.772 413.5,427C 412.833,426.333 412.167,425.667 411.5,425C 413.751,425.207 416.085,425.373 418.5,425.5C 418.5,424.5 418.5,423.5 418.5,422.5C 420.5,422.5 422.5,422.5 424.5,422.5C 424.5,421.5 424.5,420.5 424.5,419.5C 426.167,419.5 427.833,419.5 429.5,419.5C 429.5,418.5 429.5,417.5 429.5,416.5C 435.437,415.271 441.104,413.605 446.5,411.5C 446.5,410.5 446.5,409.5 446.5,408.5C 448.5,408.5 450.5,408.5 452.5,408.5C 452.5,407.5 452.5,406.5 452.5,405.5C 454.527,405.662 456.527,405.495 458.5,405C 459.833,404.333 459.833,403.667 458.5,403C 466.223,402.088 472.889,399.088 478.5,394C 482.876,393.178 487.209,392.178 491.5,391C 496.651,388.125 501.984,385.459 507.5,383C 509.9,382.814 512.234,382.314 514.5,381.5C 514.291,380.914 513.957,380.414 513.5,380C 516.5,379.667 519.5,379.333 522.5,379C 526.096,377.326 529.763,375.659 533.5,374C 537.331,373.334 540.997,372.167 544.5,370.5C 546.064,371.186 547.731,371.019 549.5,370C 549.167,369.667 548.833,369.333 548.5,369C 551.833,368.667 555.167,368.333 558.5,368C 559.167,367.333 559.833,366.667 560.5,366C 566.495,363.932 572.829,362.599 579.5,362C 578.167,361.333 578.167,360.667 579.5,360C 588.035,359.796 595.702,358.796 602.5,357C 606.864,354.936 611.53,353.936 616.5,354C 618.301,353.683 618.634,353.016 617.5,352C 628.036,350.453 638.703,349.119 649.5,348C 650.833,347.333 650.833,346.667 649.5,346C 657.665,345.968 665.665,345.302 673.5,344C 729.5,342 785.5,342 841.5,344C 849.335,345.302 857.335,345.968 865.5,346C 864.167,346.667 864.167,347.333 865.5,348C 876.297,349.119 886.964,350.453 897.5,352C 896.366,353.016 896.699,353.683 898.5,354C 903.47,353.936 908.136,354.936 912.5,357C 919.298,358.796 926.965,359.796 935.5,360C 936.833,360.667 936.833,361.333 935.5,362C 942.171,362.599 948.505,363.932 954.5,366C 955.167,366.667 955.833,367.333 956.5,368C 959.833,368.333 963.167,368.667 966.5,369C 966.167,369.333 965.833,369.667 965.5,370C 967.269,371.019 968.936,371.186 970.5,370.5C 974.003,372.167 977.669,373.334 981.5,374C 985.237,375.659 988.904,377.326 992.5,379C 995.5,379.333 998.5,379.667 1001.5,380C 1001.04,380.414 1000.71,380.914 1000.5,381.5C 1002.77,382.314 1005.1,382.814 1007.5,383C 1013.02,385.459 1018.35,388.125 1023.5,391C 1031.92,391.739 1039.25,394.739 1045.5,400C 1049.02,401.529 1052.68,402.529 1056.5,403C 1055.17,403.667 1055.17,404.333 1056.5,405C 1058.47,405.495 1060.47,405.662 1062.5,405.5C 1062.5,406.5 1062.5,407.5 1062.5,408.5C 1064.5,408.5 1066.5,408.5 1068.5,408.5C 1068.5,409.5 1068.5,410.5 1068.5,411.5C 1073.9,413.605 1079.56,415.271 1085.5,416.5C 1085.5,417.5 1085.5,418.5 1085.5,419.5C 1087.17,419.5 1088.83,419.5 1090.5,419.5C 1090.5,420.5 1090.5,421.5 1090.5,422.5C 1092.5,422.5 1094.5,422.5 1096.5,422.5C 1096.5,423.5 1096.5,424.5 1096.5,425.5C 1098.92,425.373 1101.25,425.207 1103.5,425C 1100.75,426.58 1100.91,427.746 1104,428.5C 1104.87,428.265 1105.71,427.931 1106.5,427.5C 1107.71,428.274 1107.71,429.107 1106.5,430C 1107.85,431.294 1109.19,431.46 1110.5,430.5C 1111.39,431.325 1111.72,432.325 1111.5,433.5C 1113.17,433.5 1114.83,433.5 1116.5,433.5C 1116.5,434.5 1116.5,435.5 1116.5,436.5C 1118.17,436.5 1119.83,436.5 1121.5,436.5C 1121.5,437.5 1121.5,438.5 1121.5,439.5C 1123.53,439.338 1125.53,439.505 1127.5,440C 1126.17,440.667 1126.17,441.333 1127.5,442C 1131.24,444.021 1134.9,446.188 1138.5,448.5C 1140.21,447.391 1140.88,448.058 1140.5,450.5C 1142.17,450.5 1143.83,450.5 1145.5,450.5C 1145.5,451.5 1145.5,452.5 1145.5,453.5C 1146.83,453.5 1148.17,453.5 1149.5,453.5C 1149.5,454.5 1149.5,455.5 1149.5,456.5C 1150.98,456.238 1152.31,456.571 1153.5,457.5C 1155.97,458.908 1158.3,460.575 1160.5,462.5C 1162.21,461.391 1162.88,462.058 1162.5,464.5C 1163.87,464.343 1165.21,464.51 1166.5,465C 1174.02,470.599 1181.02,476.099 1187.5,481.5C 1189.5,483.334 1191.83,484.334 1194.5,484.5C 1194.5,485.5 1194.5,486.5 1194.5,487.5C 1195.83,487.5 1197.17,487.5 1198.5,487.5C 1198.5,488.5 1198.5,489.5 1198.5,490.5C 1199.5,490.5 1200.5,490.5 1201.5,490.5C 1201.5,491.5 1201.5,492.5 1201.5,493.5C 1202.83,493.5 1204.17,493.5 1205.5,493.5C 1205.35,494.552 1205.52,495.552 1206,496.5C 1208.32,495.639 1209.49,496.639 1209.5,499.5C 1211.73,500.704 1214.07,501.87 1216.5,503C 1215.17,503.667 1215.17,504.333 1216.5,505C 1218.65,506.413 1220.99,507.246 1223.5,507.5C 1223.5,508.5 1223.5,509.5 1223.5,510.5C 1224.5,510.5 1225.5,510.5 1226.5,510.5C 1226.5,511.5 1226.5,512.5 1226.5,513.5C 1227.5,513.5 1228.5,513.5 1229.5,513.5C 1229.5,514.5 1229.5,515.5 1229.5,516.5C 1231.64,516.703 1233.3,517.703 1234.5,519.5C 1236.53,518.371 1236.86,518.871 1235.5,521C 1236.79,521.49 1238.13,521.657 1239.5,521.5C 1239.5,522.5 1239.5,523.5 1239.5,524.5C 1242.21,525.695 1244.54,527.528 1246.5,530C 1247.45,530.483 1248.45,530.649 1249.5,530.5C 1249.5,531.5 1249.5,532.5 1249.5,533.5C 1250.5,533.5 1251.5,533.5 1252.5,533.5C 1252.28,534.675 1252.61,535.675 1253.5,536.5C 1261.15,543.152 1268.49,550.152 1275.5,557.5C 1276.32,558.386 1277.32,558.719 1278.5,558.5C 1278.28,559.675 1278.61,560.675 1279.5,561.5C 1286.74,568.777 1294.07,576.777 1301.5,585.5C 1302.32,586.386 1303.32,586.719 1304.5,586.5C 1305.04,588.58 1305.88,590.58 1307,592.5C 1307.67,593.833 1308.33,593.833 1309,592.5C 1309.33,593.833 1309.67,595.167 1310,596.5C 1310.33,596.167 1310.67,595.833 1311,595.5C 1312.04,596.623 1312.71,597.956 1313,599.5C 1313.33,599.167 1313.67,598.833 1314,598.5C 1314.48,599.448 1314.65,600.448 1314.5,601.5C 1315.5,601.5 1316.5,601.5 1317.5,601.5C 1319.22,605.991 1321.22,609.657 1323.5,612.5C 1324.5,612.5 1325.5,612.5 1326.5,612.5C 1326.5,613.5 1326.5,614.5 1326.5,615.5C 1327.55,615.351 1328.55,615.517 1329.5,616C 1329.03,617.299 1329.03,618.799 1329.5,620.5C 1330.5,620.5 1331.5,620.5 1332.5,620.5C 1332.37,623.329 1333.37,624.662 1335.5,624.5C 1334.15,625.675 1334.31,626.675 1336,627.5C 1336.33,627.167 1336.67,626.833 1337,626.5C 1343.32,635.79 1349.65,645.123 1356,654.5C 1359.65,657.935 1362.15,661.601 1363.5,665.5C 1365.91,669.313 1368.58,672.98 1371.5,676.5C 1372.25,677.736 1372.58,679.07 1372.5,680.5C 1374.94,680.119 1375.61,680.786 1374.5,682.5C 1375.32,683.386 1376.32,683.719 1377.5,683.5C 1377.34,685.199 1377.51,686.866 1378,688.5C 1380.62,691.416 1382.46,694.75 1383.5,698.5C 1384.5,698.5 1385.5,698.5 1386.5,698.5C 1386.34,700.199 1386.51,701.866 1387,703.5C 1391.22,709.95 1394.89,716.616 1398,723.5C 1398.67,724.833 1399.33,724.833 1400,723.5C 1400.5,725.473 1400.66,727.473 1400.5,729.5C 1401.5,729.5 1402.5,729.5 1403.5,729.5C 1404.02,733.333 1405.02,737 1406.5,740.5C 1408.94,740.119 1409.61,740.786 1408.5,742.5C 1413.34,752.357 1418.34,762.023 1423.5,771.5C 1421.72,773.935 1422.39,774.935 1425.5,774.5C 1425.85,776.541 1425.85,778.374 1425.5,780C 1426.36,782.734 1427.19,782.901 1428,780.5C 1431.21,787.57 1433.55,794.903 1435,802.5C 1436.95,804.337 1437.95,806.671 1438,809.5C 1438.67,808.167 1439.33,808.167 1440,809.5C 1441.09,814.977 1442.42,820.31 1444,825.5C 1444.38,826.056 1444.88,826.389 1445.5,826.5 Z"/></g>
<g><path style="opacity:0.004" fill="#000000" d="M 465.5,652.5 C 464.833,653.167 464.833,653.167 465.5,652.5 Z"/></g>
<g><path style="opacity:0.004" fill="#000000" d="M 1050.5,652.5 C 1051.83,653.167 1051.83,653.167 1050.5,652.5 Z"/></g>
<g><path style="opacity:0.004" fill="#000000" d="M 1112.5,823.5 C 1111.83,822.167 1111.83,822.167 1112.5,823.5 Z"/></g>
<g><path style="opacity:0.004" fill="#000000" d="M 69.5,826.5 C 68.475,826.103 68.3083,825.437 69,824.5C 69.4643,825.094 69.631,825.761 69.5,826.5 Z"/></g>
<g><path style="opacity:0.004" fill="#000000" d="M 1445.5,826.5 C 1445.37,825.761 1445.54,825.094 1446,824.5C 1446.69,825.437 1446.53,826.103 1445.5,826.5 Z"/></g>
<g><path style="opacity:0.004" fill="#000000" d="M 1458.5,868.5 C 1459.83,869.167 1459.83,869.167 1458.5,868.5 Z"/></g>
<g><path style="opacity:0.004" fill="#000000" d="M 1172.5,948.5 C 1173.83,949.167 1173.83,949.167 1172.5,948.5 Z"/></g>
<g><path style="opacity:0.004" fill="#000000" d="M 1183.5,998.5 C 1184.53,998.897 1184.69,999.563 1184,1000.5C 1183.54,999.906 1183.37,999.239 1183.5,998.5 Z"/></g>
<g><path style="opacity:0.004" fill="#000000" d="M 330.5,1031.5 C 331.641,1034.64 331.808,1037.97 331,1041.5C 330.502,1038.18 330.335,1034.85 330.5,1031.5 Z"/></g>
<g><path style="opacity:0.004" fill="#000000" d="M 438.5,1276.5 C 439.833,1277.17 439.833,1277.17 438.5,1276.5 Z"/></g>
<g><path style="opacity:0.004" fill="#000000" d="M 1076.5,1277.5 C 1075.83,1276.17 1075.83,1276.17 1076.5,1277.5 Z"/></g>
<g><path style="opacity:0.004" fill="#000000" d="M 68.5,1315.5 C 69.8333,1316.17 69.8333,1316.17 68.5,1315.5 Z"/></g>
<g><path style="opacity:0.004" fill="#000000" d="M 1445.5,1315.5 C 1446.83,1316.17 1446.83,1316.17 1445.5,1315.5 Z"/></g>
<g><path style="opacity:0.004" fill="#000000" d="M 394.5,1353.5 C 393.833,1354.17 393.833,1354.17 394.5,1353.5 Z"/></g>
<g><path style="opacity:0.004" fill="#000000" d="M 1388.5,1438.5 C 1389.83,1439.17 1389.83,1439.17 1388.5,1438.5 Z"/></g>
<g><path style="opacity:0.004" fill="#000000" d="M 181.5,1523.5 C 180.833,1524.17 180.833,1524.17 181.5,1523.5 Z"/></g>
<g><path style="opacity:0.004" fill="#000000" d="M 1333.5,1523.5 C 1334.83,1524.17 1334.83,1524.17 1333.5,1523.5 Z"/></g>
<g><path style="opacity:0.004" fill="#000000" d="M 200.5,1548.5 C 201.525,1548.9 201.692,1549.56 201,1550.5C 200.536,1549.91 200.369,1549.24 200.5,1548.5 Z"/></g>
<g><path style="opacity:0.004" fill="#000000" d="M 1313.5,1548.5 C 1314.53,1548.9 1314.69,1549.56 1314,1550.5C 1313.54,1549.91 1313.37,1549.24 1313.5,1548.5 Z"/></g>
<g><path style="opacity:0.008" fill="#000000" d="M 211.5,1560.5 C 210.833,1561.17 210.833,1561.17 211.5,1560.5 Z"/></g>
<g><path style="opacity:0.008" fill="#000000" d="M 1303.5,1560.5 C 1304.83,1561.17 1304.83,1561.17 1303.5,1560.5 Z"/></g>
<g><path style="opacity:0.004" fill="#000000" d="M 383.5,1711.5 C 382.833,1712.17 382.833,1712.17 383.5,1711.5 Z"/></g>
<g><path style="opacity:0.004" fill="#000000" d="M 1131.5,1711.5 C 1132.83,1712.17 1132.83,1712.17 1131.5,1711.5 Z"/></g>
</svg>
