<?xml version="1.0" encoding="UTF-8"?>
<!DOCTYPE svg PUBLIC "-//W3C//DTD SVG 1.1//EN" "http://www.w3.org/Graphics/SVG/1.1/DTD/svg11.dtd">
<svg xmlns="http://www.w3.org/2000/svg" version="1.1" width="1516px" height="2138px" style="shape-rendering:geometricPrecision; text-rendering:geometricPrecision; image-rendering:optimizeQuality; fill-rule:evenodd; clip-rule:evenodd" xmlns:xlink="http://www.w3.org/1999/xlink">
<g><path style="opacity:0.993" fill="#e44d26" d="M 206.5,1744.5 C 195.939,1741.69 185.272,1738.86 174.5,1736C 173.333,1735.5 172.5,1734.67 172,1733.5C 161.016,1612.02 150.183,1490.69 139.5,1369.5C 129.843,1273.03 121.176,1176.69 113.5,1080.5C 94.6745,867.54 75.6745,654.873 56.5,442.5C 52.675,395.41 48.5083,348.077 44,300.5C 43.5003,293.174 43.3337,285.841 43.5,278.5C 518.5,278.5 993.5,278.5 1468.5,278.5C 1468.67,288.172 1468.5,297.839 1468,307.5C 1466.45,318.384 1465.11,329.384 1464,340.5C 1451.42,483.462 1439.09,626.462 1427,769.5C 1425.1,775.34 1424.1,781.34 1424,787.5C 1420.23,830.129 1416.89,872.796 1414,915.5C 1413.27,921.972 1412.27,928.305 1411,934.5C 1398.62,1072.71 1386.62,1211.71 1375,1351.5C 1362.88,1479.16 1351.05,1606.83 1339.5,1734.5C 1150.09,1786.87 960.427,1839.37 770.5,1892C 762.967,1894.23 755.301,1894.9 747.5,1894C 566.6,1844.68 386.267,1794.85 206.5,1744.5 Z"/></g>
<g><path style="opacity:1" fill="#ec5d27" d="M 1337.5,405.5 C 1337.5,403.5 1337.5,401.5 1337.5,399.5C 1143.83,399.5 950.167,399.5 756.5,399.5C 756.5,457.5 756.5,515.5 756.5,573.5C 756.5,574.167 756.5,574.833 756.5,575.5C 756.167,575.5 755.833,575.5 755.5,575.5C 755.5,574.833 755.5,574.167 755.5,573.5C 755.5,515.167 755.5,456.833 755.5,398.5C 949.833,398.5 1144.17,398.5 1338.5,398.5C 1338.8,401.059 1338.47,403.393 1337.5,405.5 Z"/></g>
<g><path style="opacity:1" fill="#f16529" d="M 1337.5,405.5 C 1314.32,674.262 1290.16,942.929 1265,1211.5C 1253.2,1354.33 1240.54,1497 1227,1639.5C 1070.55,1683.84 913.72,1727.5 756.5,1770.5C 756.5,1709.17 756.5,1647.83 756.5,1586.5C 759.916,1586.47 762.916,1585.47 765.5,1583.5C 779.05,1579.65 792.717,1575.99 806.5,1572.5C 809.152,1572.59 811.485,1571.92 813.5,1570.5C 826.614,1566.47 839.947,1562.8 853.5,1559.5C 858.552,1559.19 863.552,1558.69 868.5,1558C 872.5,1557.33 872.5,1556.67 868.5,1556C 869.737,1555.77 870.737,1555.27 871.5,1554.5C 873.898,1554.74 875.898,1554.07 877.5,1552.5C 881.286,1552.68 884.619,1551.68 887.5,1549.5C 895.404,1547.19 903.404,1545.19 911.5,1543.5C 916.165,1542.94 920.498,1541.61 924.5,1539.5C 926.905,1538.23 929.572,1537.57 932.5,1537.5C 934.898,1537.74 936.898,1537.07 938.5,1535.5C 941.053,1534.75 943.72,1534.08 946.5,1533.5C 948.898,1533.74 950.898,1533.07 952.5,1531.5C 961.451,1528.96 970.451,1526.63 979.5,1524.5C 983.162,1524.28 986.495,1523.28 989.5,1521.5C 1006.27,1516.47 1023.27,1511.8 1040.5,1507.5C 1044.16,1507.28 1047.5,1506.28 1050.5,1504.5C 1051.57,1503.57 1052.9,1503.23 1054.5,1503.5C 1058.16,1503.28 1061.5,1502.28 1064.5,1500.5C 1076.63,1496.8 1088.96,1493.46 1101.5,1490.5C 1104.15,1490.59 1106.49,1489.92 1108.5,1488.5C 1108.83,1488.5 1109.17,1488.5 1109.5,1488.5C 1111.9,1488.74 1113.9,1488.07 1115.5,1486.5C 1117.4,1486.2 1119.07,1485.54 1120.5,1484.5C 1121.89,1479.73 1122.56,1474.73 1122.5,1469.5C 1122.53,1463.81 1122.87,1458.14 1123.5,1452.5C 1123.5,1450.83 1123.5,1449.17 1123.5,1447.5C 1124.73,1439 1125.73,1430.33 1126.5,1421.5C 1126.5,1416.47 1126.84,1411.47 1127.5,1406.5C 1129.24,1393.35 1130.58,1380.02 1131.5,1366.5C 1131.5,1364.17 1131.5,1361.83 1131.5,1359.5C 1133.55,1351.43 1134.55,1343.1 1134.5,1334.5C 1134.91,1325.14 1135.58,1315.81 1136.5,1306.5C 1136.5,1305.5 1136.5,1304.5 1136.5,1303.5C 1137.96,1298.4 1138.62,1293.07 1138.5,1287.5C 1138.5,1287.17 1138.5,1286.83 1138.5,1286.5C 1140.93,1275.77 1141.93,1264.77 1141.5,1253.5C 1144.06,1222.78 1146.73,1192.11 1149.5,1161.5C 1150.95,1155.73 1151.61,1149.73 1151.5,1143.5C 1151.5,1138.47 1151.84,1133.47 1152.5,1128.5C 1154.05,1110.34 1155.72,1092.34 1157.5,1074.5C 1158.95,1068.73 1159.61,1062.73 1159.5,1056.5C 1159.5,1053.83 1159.5,1051.17 1159.5,1048.5C 1161.81,1037.08 1163.14,1025.42 1163.5,1013.5C 1164.25,999.808 1165.25,986.141 1166.5,972.5C 1168.08,967.417 1168.75,962.084 1168.5,956.5C 1169.2,952.202 1169.53,947.869 1169.5,943.5C 1169.5,941.5 1169.5,939.5 1169.5,937.5C 953.167,937.5 736.833,937.5 520.5,937.5C 520.5,937.167 520.5,936.833 520.5,936.5C 599.167,936.5 677.833,936.5 756.5,936.5C 1307.17,935.833 1307.17,935.167 756.5,934.5C 756.5,874.833 756.5,815.167 756.5,755.5C 899.668,755.833 1042.67,755.5 1185.5,754.5C 1186.47,752.393 1186.8,750.059 1186.5,747.5C 1187.73,731.82 1189.07,716.154 1190.5,700.5C 1191.85,691.011 1192.85,681.344 1193.5,671.5C 1194.68,665.699 1195.35,659.699 1195.5,653.5C 1197.65,631.374 1199.65,609.374 1201.5,587.5C 1202.48,583.702 1202.82,579.702 1202.5,575.5C 1054.17,573.502 905.504,572.835 756.5,573.5C 756.5,515.5 756.5,457.5 756.5,399.5C 950.167,399.5 1143.83,399.5 1337.5,399.5C 1337.5,401.5 1337.5,403.5 1337.5,405.5 Z"/></g>
<g><path style="opacity:1" fill="#e3471e" d="M 755.5,573.5 C 755.5,574.167 755.5,574.833 755.5,575.5C 606.5,575.5 457.5,575.5 308.5,575.5C 457.163,573.502 606.163,572.835 755.5,573.5 Z"/></g>
<g><path style="opacity:1" fill="#f05f21" d="M 756.5,573.5 C 905.504,572.835 1054.17,573.502 1202.5,575.5C 1053.83,575.5 905.167,575.5 756.5,575.5C 756.5,574.833 756.5,574.167 756.5,573.5 Z"/></g>
<g><path style="opacity:1" fill="#ef855e" d="M 308.5,576.5 C 308.5,576.167 308.5,575.833 308.5,575.5C 457.5,575.5 606.5,575.5 755.5,575.5C 755.833,575.5 756.167,575.5 756.5,575.5C 905.167,575.5 1053.83,575.5 1202.5,575.5C 1202.82,579.702 1202.48,583.702 1201.5,587.5C 1201.5,584.167 1201.5,580.833 1201.5,577.5C 904,576.5 606.334,576.167 308.5,576.5 Z"/></g>
<g><path style="opacity:1" fill="#f0d2c8" d="M 308.5,576.5 C 606.334,576.167 904,576.5 1201.5,577.5C 1052.83,577.5 904.167,577.5 755.5,577.5C 606.833,577.5 458.167,577.5 309.5,577.5C 309.5,579.167 309.5,580.833 309.5,582.5C 308.539,580.735 308.205,578.735 308.5,576.5 Z"/></g>
<g><path style="opacity:1" fill="#ebf2f3" d="M 755.5,577.5 C 755.5,636.167 755.5,694.833 755.5,753.5C 755.5,753.833 755.5,754.167 755.5,754.5C 755.167,754.5 754.833,754.5 754.5,754.5C 671.001,753.667 587.334,753.167 503.5,753C 587.166,752.5 670.833,752.333 754.5,752.5C 754.5,694.833 754.5,637.167 754.5,579.5C 606.833,579.5 459.167,579.5 311.5,579.5C 311.665,583.182 311.499,586.848 311,590.5C 310.817,587.635 310.317,584.969 309.5,582.5C 309.5,580.833 309.5,579.167 309.5,577.5C 458.167,577.5 606.833,577.5 755.5,577.5 Z"/></g>
<g><path style="opacity:1" fill="#fffefe" d="M 755.5,577.5 C 904.167,577.5 1052.83,577.5 1201.5,577.5C 1201.5,580.833 1201.5,584.167 1201.5,587.5C 1199.65,609.374 1197.65,631.374 1195.5,653.5C 1194.04,658.598 1193.38,663.931 1193.5,669.5C 1192.71,670.609 1192.21,671.942 1192,673.5C 1191.22,682.487 1190.72,691.487 1190.5,700.5C 1189.07,716.154 1187.73,731.82 1186.5,747.5C 1185.54,749.265 1185.21,751.265 1185.5,753.5C 1042.17,753.5 898.833,753.5 755.5,753.5C 755.5,694.833 755.5,636.167 755.5,577.5 Z"/></g>
<g><path style="opacity:1" fill="#ebeaea" d="M 754.5,754.5 C 671.167,754.5 587.833,754.5 504.5,754.5C 504.5,757.5 504.5,760.5 504.5,763.5C 504.376,769.069 505.043,774.402 506.5,779.5C 508.555,803.443 510.555,827.443 512.5,851.5C 512.398,859.772 513.398,867.772 515.5,875.5C 515.5,878.833 515.5,882.167 515.5,885.5C 515.105,891.762 515.772,897.762 517.5,903.5C 518.312,911.324 519.312,918.991 520.5,926.5C 520.5,929.833 520.5,933.167 520.5,936.5C 520.5,936.833 520.5,937.167 520.5,937.5C 598.665,938.499 676.998,938.833 755.5,938.5C 755.832,996.669 755.499,1054.67 754.5,1112.5C 622.5,1112.5 490.5,1112.5 358.5,1112.5C 358.665,1109.48 358.498,1106.48 358,1103.5C 357.503,1106.15 357.336,1108.81 357.5,1111.5C 357.167,1111.5 356.833,1111.5 356.5,1111.5C 356.5,1109.17 356.5,1106.83 356.5,1104.5C 356.442,1097.14 355.942,1089.81 355,1082.5C 354.768,1081.26 354.268,1080.26 353.5,1079.5C 351.393,1058.9 349.726,1038.23 348.5,1017.5C 348.811,1012.23 348.145,1007.23 346.5,1002.5C 345.721,988.481 344.721,974.481 343.5,960.5C 343.666,956.154 343.499,951.821 343,947.5C 342.768,946.263 342.268,945.263 341.5,944.5C 341.218,936.778 340.551,929.112 339.5,921.5C 339.473,915.949 338.806,910.616 337.5,905.5C 337.779,900.405 337.445,895.405 336.5,890.5C 336.224,882.319 335.557,874.319 334.5,866.5C 333.896,855.416 332.896,844.416 331.5,833.5C 331.55,827.611 330.884,821.944 329.5,816.5C 325.925,770.112 321.925,723.779 317.5,677.5C 317.679,671.596 317.012,665.929 315.5,660.5C 315.361,652.445 314.694,644.445 313.5,636.5C 313.612,630.274 312.946,624.274 311.5,618.5C 310.612,606.514 309.945,594.514 309.5,582.5C 310.317,584.969 310.817,587.635 311,590.5C 311.499,586.848 311.665,583.182 311.5,579.5C 459.167,579.5 606.833,579.5 754.5,579.5C 754.5,637.167 754.5,694.833 754.5,752.5C 670.833,752.333 587.166,752.5 503.5,753C 587.334,753.167 671.001,753.667 754.5,754.5 Z"/></g>
<g><path style="opacity:1" fill="#e67658" d="M 311.5,618.5 C 312.946,624.274 313.612,630.274 313.5,636.5C 311.943,630.739 311.276,624.739 311.5,618.5 Z"/></g>
<g><path style="opacity:1" fill="#f79f79" d="M 1195.5,653.5 C 1195.35,659.699 1194.68,665.699 1193.5,671.5C 1193.5,670.833 1193.5,670.167 1193.5,669.5C 1193.38,663.931 1194.04,658.598 1195.5,653.5 Z"/></g>
<g><path style="opacity:1" fill="#e88a70" d="M 315.5,660.5 C 317.012,665.929 317.679,671.596 317.5,677.5C 315.988,672.071 315.321,666.404 315.5,660.5 Z"/></g>
<g><path style="opacity:1" fill="#fcd6c6" d="M 1193.5,669.5 C 1193.5,670.167 1193.5,670.833 1193.5,671.5C 1192.85,681.344 1191.85,691.011 1190.5,700.5C 1190.72,691.487 1191.22,682.487 1192,673.5C 1192.21,671.942 1192.71,670.609 1193.5,669.5 Z"/></g>
<g><path style="opacity:1" fill="#fef6f1" d="M 1186.5,747.5 C 1186.8,750.059 1186.47,752.393 1185.5,754.5C 1042.17,754.5 898.833,754.5 755.5,754.5C 755.5,754.167 755.5,753.833 755.5,753.5C 898.833,753.5 1042.17,753.5 1185.5,753.5C 1185.21,751.265 1185.54,749.265 1186.5,747.5 Z"/></g>
<g><path style="opacity:1" fill="#e44d26" d="M 756.5,755.5 C 756.5,815.167 756.5,874.833 756.5,934.5C 756.5,934.833 756.5,935.167 756.5,935.5C 678.571,934.503 600.571,934.17 522.5,934.5C 522.827,929.786 522.493,925.12 521.5,920.5C 520.534,922.396 520.201,924.396 520.5,926.5C 519.312,918.991 518.312,911.324 517.5,903.5C 517.348,897.301 516.682,891.301 515.5,885.5C 515.5,882.167 515.5,878.833 515.5,875.5C 515.227,867.273 514.227,859.273 512.5,851.5C 510.555,827.443 508.555,803.443 506.5,779.5C 506.5,776.5 506.5,773.5 506.5,770.5C 506.249,765.493 505.916,760.493 505.5,755.5C 589.167,755.5 672.833,755.5 756.5,755.5 Z"/></g>
<g><path style="opacity:1" fill="#ee8969" d="M 754.5,754.5 C 754.833,754.5 755.167,754.5 755.5,754.5C 898.833,754.5 1042.17,754.5 1185.5,754.5C 1042.67,755.5 899.668,755.833 756.5,755.5C 672.833,755.5 589.167,755.5 505.5,755.5C 505.916,760.493 506.249,765.493 506.5,770.5C 505.833,768.167 505.167,765.833 504.5,763.5C 504.5,760.5 504.5,757.5 504.5,754.5C 587.833,754.5 671.167,754.5 754.5,754.5 Z"/></g>
<g><path style="opacity:1" fill="#e9ac9c" d="M 504.5,763.5 C 505.167,765.833 505.833,768.167 506.5,770.5C 506.5,773.5 506.5,776.5 506.5,779.5C 505.043,774.402 504.376,769.069 504.5,763.5 Z"/></g>
<g><path style="opacity:1" fill="#e67c60" d="M 329.5,816.5 C 330.884,821.944 331.55,827.611 331.5,833.5C 329.883,828.084 329.216,822.417 329.5,816.5 Z"/></g>
<g><path style="opacity:1" fill="#e9a390" d="M 512.5,851.5 C 514.227,859.273 515.227,867.273 515.5,875.5C 513.398,867.772 512.398,859.772 512.5,851.5 Z"/></g>
<g><path style="opacity:1" fill="#e77c5f" d="M 334.5,866.5 C 335.557,874.319 336.224,882.319 336.5,890.5C 334.845,882.729 334.178,874.729 334.5,866.5 Z"/></g>
<g><path style="opacity:1" fill="#eabfb4" d="M 515.5,885.5 C 516.682,891.301 517.348,897.301 517.5,903.5C 515.772,897.762 515.105,891.762 515.5,885.5 Z"/></g>
<g><path style="opacity:1" fill="#e78368" d="M 337.5,905.5 C 338.806,910.616 339.473,915.949 339.5,921.5C 338.043,916.402 337.376,911.069 337.5,905.5 Z"/></g>
<g><path style="opacity:1" fill="#e4461e" d="M 756.5,935.5 C 756.5,935.833 756.5,936.167 756.5,936.5C 677.833,936.5 599.167,936.5 520.5,936.5C 520.5,933.167 520.5,929.833 520.5,926.5C 520.201,924.396 520.534,922.396 521.5,920.5C 522.493,925.12 522.827,929.786 522.5,934.5C 600.571,934.17 678.571,934.503 756.5,935.5 Z"/></g>
<g><path style="opacity:1" fill="#f05c1d" d="M 756.5,934.5 C 1307.17,935.167 1307.17,935.833 756.5,936.5C 756.5,936.167 756.5,935.833 756.5,935.5C 756.5,935.167 756.5,934.833 756.5,934.5 Z"/></g>
<g><path style="opacity:1" fill="#f8dfd6" d="M 520.5,937.5 C 736.833,937.5 953.167,937.5 1169.5,937.5C 1169.5,939.5 1169.5,941.5 1169.5,943.5C 1169.17,943.5 1168.83,943.5 1168.5,943.5C 1168.5,941.833 1168.5,940.167 1168.5,938.5C 1030.83,938.5 893.167,938.5 755.5,938.5C 676.998,938.833 598.665,938.499 520.5,937.5 Z"/></g>
<g><path style="opacity:1" fill="#fefefe" d="M 755.5,938.5 C 893.167,938.5 1030.83,938.5 1168.5,938.5C 1168.5,940.167 1168.5,941.833 1168.5,943.5C 1167.92,947.81 1167.59,952.143 1167.5,956.5C 1166.81,961.805 1166.47,967.138 1166.5,972.5C 1165.25,986.141 1164.25,999.808 1163.5,1013.5C 1161.7,1024.98 1160.36,1036.64 1159.5,1048.5C 1159.5,1051.17 1159.5,1053.83 1159.5,1056.5C 1158.05,1062.27 1157.39,1068.27 1157.5,1074.5C 1155.72,1092.34 1154.05,1110.34 1152.5,1128.5C 1150.76,1133.22 1150.1,1138.22 1150.5,1143.5C 1149.93,1149.48 1149.59,1155.48 1149.5,1161.5C 1146.73,1192.11 1144.06,1222.78 1141.5,1253.5C 1140.43,1264.35 1139.43,1275.35 1138.5,1286.5C 1138.5,1286.83 1138.5,1287.17 1138.5,1287.5C 1137.19,1292.62 1136.53,1297.95 1136.5,1303.5C 1136.5,1304.5 1136.5,1305.5 1136.5,1306.5C 1135.73,1307.26 1135.23,1308.26 1135,1309.5C 1134.22,1317.82 1133.72,1326.15 1133.5,1334.5C 1132.75,1342.83 1132.08,1351.16 1131.5,1359.5C 1131.5,1361.83 1131.5,1364.17 1131.5,1366.5C 1129.07,1379.58 1127.73,1392.91 1127.5,1406.5C 1126.84,1411.47 1126.5,1416.47 1126.5,1421.5C 1125.73,1422.26 1125.23,1423.26 1125,1424.5C 1124.11,1432.14 1123.61,1439.81 1123.5,1447.5C 1123.5,1449.17 1123.5,1450.83 1123.5,1452.5C 1122.71,1453.61 1122.21,1454.94 1122,1456.5C 1121.5,1460.82 1121.33,1465.15 1121.5,1469.5C 1121.08,1474.49 1120.75,1479.49 1120.5,1484.5C 1119.07,1485.54 1117.4,1486.2 1115.5,1486.5C 1113.1,1486.26 1111.1,1486.93 1109.5,1488.5C 1109.17,1488.5 1108.83,1488.5 1108.5,1488.5C 1105.85,1488.41 1103.51,1489.08 1101.5,1490.5C 1088.96,1493.46 1076.63,1496.8 1064.5,1500.5C 1060.84,1500.72 1057.5,1501.72 1054.5,1503.5C 1052.9,1503.23 1051.57,1503.57 1050.5,1504.5C 1046.84,1504.72 1043.5,1505.72 1040.5,1507.5C 1023.27,1511.8 1006.27,1516.47 989.5,1521.5C 985.838,1521.72 982.505,1522.72 979.5,1524.5C 970.451,1526.63 961.451,1528.96 952.5,1531.5C 950.102,1531.26 948.102,1531.93 946.5,1533.5C 943.72,1534.08 941.053,1534.75 938.5,1535.5C 936.102,1535.26 934.102,1535.93 932.5,1537.5C 929.572,1537.57 926.905,1538.23 924.5,1539.5C 919.835,1540.06 915.502,1541.39 911.5,1543.5C 903.404,1545.19 895.404,1547.19 887.5,1549.5C 883.916,1549.98 880.583,1550.98 877.5,1552.5C 875.102,1552.26 873.102,1552.93 871.5,1554.5C 865.131,1555.26 859.131,1556.92 853.5,1559.5C 839.947,1562.8 826.614,1566.47 813.5,1570.5C 810.848,1570.41 808.515,1571.08 806.5,1572.5C 792.717,1575.99 779.05,1579.65 765.5,1583.5C 762.145,1583.69 759.145,1584.69 756.5,1586.5C 755.5,1586.5 754.5,1586.5 753.5,1586.5C 754.818,1555.81 755.485,1524.98 755.5,1494C 755.496,1463.46 755.163,1432.96 754.5,1402.5C 755.602,1401.82 756.602,1401.16 757.5,1400.5C 757.5,1400.17 757.5,1399.83 757.5,1399.5C 759.806,1399.01 762.139,1398.67 764.5,1398.5C 768.162,1398.28 771.495,1397.28 774.5,1395.5C 777.006,1394.25 779.673,1393.58 782.5,1393.5C 785.152,1393.59 787.485,1392.92 789.5,1391.5C 790.568,1390.57 791.901,1390.23 793.5,1390.5C 797.162,1390.28 800.495,1389.28 803.5,1387.5C 804.167,1387.5 804.833,1387.5 805.5,1387.5C 807.898,1387.74 809.898,1387.07 811.5,1385.5C 813.042,1384.7 814.708,1384.37 816.5,1384.5C 818.898,1384.74 820.898,1384.07 822.5,1382.5C 826.787,1381.29 831.12,1380.29 835.5,1379.5C 839.162,1379.28 842.495,1378.28 845.5,1376.5C 846.919,1375.55 848.585,1375.22 850.5,1375.5C 852.898,1375.74 854.898,1375.07 856.5,1373.5C 859.152,1373.59 861.485,1372.92 863.5,1371.5C 866.152,1371.59 868.485,1370.92 870.5,1369.5C 874.793,1368.34 879.127,1367.34 883.5,1366.5C 888.874,1366.17 893.874,1364.83 898.5,1362.5C 902.162,1362.28 905.495,1361.28 908.5,1359.5C 909.568,1358.57 910.901,1358.23 912.5,1358.5C 915.152,1358.59 917.485,1357.92 919.5,1356.5C 922.219,1355.09 925.219,1354.42 928.5,1354.5C 933.739,1353.66 938.739,1352.33 943.5,1350.5C 946.907,1348.93 950.573,1347.93 954.5,1347.5C 956.963,1320.08 959.296,1292.75 961.5,1265.5C 962.996,1259.39 963.663,1253.06 963.5,1246.5C 963.5,1245.83 963.5,1245.17 963.5,1244.5C 964.222,1244.08 964.722,1243.42 965,1242.5C 966.032,1231.19 966.532,1219.86 966.5,1208.5C 968.363,1193.2 969.697,1177.87 970.5,1162.5C 971.946,1156.73 972.612,1150.73 972.5,1144.5C 972.361,1136.62 973.028,1128.95 974.5,1121.5C 975.461,1119.74 975.795,1117.74 975.5,1115.5C 902.167,1115.5 828.833,1115.5 755.5,1115.5C 755.167,1115.5 754.833,1115.5 754.5,1115.5C 754.5,1115.17 754.5,1114.83 754.5,1114.5C 754.5,1113.83 754.5,1113.17 754.5,1112.5C 755.499,1054.67 755.832,996.669 755.5,938.5 Z"/></g>
<g><path style="opacity:1" fill="#eac6bc" d="M 341.5,944.5 C 342.268,945.263 342.768,946.263 343,947.5C 343.499,951.821 343.666,956.154 343.5,960.5C 342.542,955.342 341.875,950.009 341.5,944.5 Z"/></g>
<g><path style="opacity:1" fill="#f9b293" d="M 1168.5,943.5 C 1168.83,943.5 1169.17,943.5 1169.5,943.5C 1169.53,947.869 1169.2,952.202 1168.5,956.5C 1168.17,956.5 1167.83,956.5 1167.5,956.5C 1167.59,952.143 1167.92,947.81 1168.5,943.5 Z"/></g>
<g><path style="opacity:1" fill="#f79971" d="M 1167.5,956.5 C 1167.83,956.5 1168.17,956.5 1168.5,956.5C 1168.75,962.084 1168.08,967.417 1166.5,972.5C 1166.47,967.138 1166.81,961.805 1167.5,956.5 Z"/></g>
<g><path style="opacity:1" fill="#e99b86" d="M 346.5,1002.5 C 348.145,1007.23 348.811,1012.23 348.5,1017.5C 346.855,1012.77 346.189,1007.77 346.5,1002.5 Z"/></g>
<g><path style="opacity:1" fill="#f69065" d="M 1163.5,1013.5 C 1163.14,1025.42 1161.81,1037.08 1159.5,1048.5C 1160.36,1036.64 1161.7,1024.98 1163.5,1013.5 Z"/></g>
<g><path style="opacity:1" fill="#f68e61" d="M 1159.5,1056.5 C 1159.61,1062.73 1158.95,1068.73 1157.5,1074.5C 1157.39,1068.27 1158.05,1062.27 1159.5,1056.5 Z"/></g>
<g><path style="opacity:0.004" fill="#e34d25" d="M 113.5,1080.5 C 112.833,1081.17 112.833,1081.17 113.5,1080.5 Z"/></g>
<g><path style="opacity:1" fill="#eabfb3" d="M 353.5,1079.5 C 354.268,1080.26 354.768,1081.26 355,1082.5C 355.942,1089.81 356.442,1097.14 356.5,1104.5C 355.05,1096.36 354.05,1088.03 353.5,1079.5 Z"/></g>
<g><path style="opacity:1" fill="#ebf2f4" d="M 754.5,1112.5 C 754.5,1113.17 754.5,1113.83 754.5,1114.5C 622.167,1114.5 489.833,1114.5 357.5,1114.5C 357.5,1113.5 357.5,1112.5 357.5,1111.5C 357.336,1108.81 357.503,1106.15 358,1103.5C 358.498,1106.48 358.665,1109.48 358.5,1112.5C 490.5,1112.5 622.5,1112.5 754.5,1112.5 Z"/></g>
<g><path style="opacity:1" fill="#e9c3ba" d="M 356.5,1111.5 C 356.833,1111.5 357.167,1111.5 357.5,1111.5C 357.5,1112.5 357.5,1113.5 357.5,1114.5C 489.833,1114.5 622.167,1114.5 754.5,1114.5C 754.5,1114.83 754.5,1115.17 754.5,1115.5C 621.833,1115.5 489.167,1115.5 356.5,1115.5C 356.5,1114.17 356.5,1112.83 356.5,1111.5 Z"/></g>
<g><path style="opacity:1" fill="#f8ae8f" d="M 755.5,1116.5 C 755.5,1116.17 755.5,1115.83 755.5,1115.5C 828.833,1115.5 902.167,1115.5 975.5,1115.5C 975.795,1117.74 975.461,1119.74 974.5,1121.5C 974.5,1119.83 974.5,1118.17 974.5,1116.5C 901.5,1116.5 828.5,1116.5 755.5,1116.5 Z"/></g>
<g><path style="opacity:1" fill="#e3451c" d="M 755.5,1116.5 C 755.833,1117.17 756.167,1117.83 756.5,1118.5C 623.165,1118.83 489.832,1118.5 356.5,1117.5C 489.498,1116.5 622.498,1116.17 755.5,1116.5 Z"/></g>
<g><path style="opacity:1" fill="#f16529" d="M 755.5,1116.5 C 828.5,1116.5 901.5,1116.5 974.5,1116.5C 974.5,1118.17 974.5,1119.83 974.5,1121.5C 973.028,1128.95 972.361,1136.62 972.5,1144.5C 971.054,1150.27 970.388,1156.27 970.5,1162.5C 969.697,1177.87 968.363,1193.2 966.5,1208.5C 965.504,1220.35 964.504,1232.35 963.5,1244.5C 963.5,1245.17 963.5,1245.83 963.5,1246.5C 962.121,1252.62 961.454,1258.95 961.5,1265.5C 959.296,1292.75 956.963,1320.08 954.5,1347.5C 950.573,1347.93 946.907,1348.93 943.5,1350.5C 938.126,1350.83 933.126,1352.17 928.5,1354.5C 925.219,1354.42 922.219,1355.09 919.5,1356.5C 916.848,1356.41 914.515,1357.08 912.5,1358.5C 910.901,1358.23 909.568,1358.57 908.5,1359.5C 904.838,1359.72 901.505,1360.72 898.5,1362.5C 893.261,1363.34 888.261,1364.67 883.5,1366.5C 879.127,1367.34 874.793,1368.34 870.5,1369.5C 867.848,1369.41 865.515,1370.08 863.5,1371.5C 860.848,1371.41 858.515,1372.08 856.5,1373.5C 854.102,1373.26 852.102,1373.93 850.5,1375.5C 848.585,1375.22 846.919,1375.55 845.5,1376.5C 841.838,1376.72 838.505,1377.72 835.5,1379.5C 831.12,1380.29 826.787,1381.29 822.5,1382.5C 820.102,1382.26 818.102,1382.93 816.5,1384.5C 814.708,1384.37 813.042,1384.7 811.5,1385.5C 809.102,1385.26 807.102,1385.93 805.5,1387.5C 804.833,1387.5 804.167,1387.5 803.5,1387.5C 799.838,1387.72 796.505,1388.72 793.5,1390.5C 791.901,1390.23 790.568,1390.57 789.5,1391.5C 786.848,1391.41 784.515,1392.08 782.5,1393.5C 779.673,1393.58 777.006,1394.25 774.5,1395.5C 770.838,1395.72 767.505,1396.72 764.5,1398.5C 762.139,1398.67 759.806,1399.01 757.5,1399.5C 756.501,1306 756.167,1212.33 756.5,1118.5C 756.167,1117.83 755.833,1117.17 755.5,1116.5 Z"/></g>
<g><path style="opacity:1" fill="#fcddd0" d="M 1152.5,1128.5 C 1151.84,1133.47 1151.5,1138.47 1151.5,1143.5C 1151.17,1143.5 1150.83,1143.5 1150.5,1143.5C 1150.1,1138.22 1150.76,1133.22 1152.5,1128.5 Z"/></g>
<g><path style="opacity:1" fill="#f8a988" d="M 972.5,1144.5 C 972.612,1150.73 971.946,1156.73 970.5,1162.5C 970.388,1156.27 971.054,1150.27 972.5,1144.5 Z"/></g>
<g><path style="opacity:1" fill="#f7a27d" d="M 1150.5,1143.5 C 1150.83,1143.5 1151.17,1143.5 1151.5,1143.5C 1151.61,1149.73 1150.95,1155.73 1149.5,1161.5C 1149.59,1155.48 1149.93,1149.48 1150.5,1143.5 Z"/></g>
<g><path style="opacity:1" fill="#e9b0a2" d="M 545.5,1215.5 C 544.566,1212.34 543.899,1209.01 543.5,1205.5C 484.167,1205.5 424.833,1205.5 365.5,1205.5C 365.5,1206.5 365.5,1207.5 365.5,1208.5C 364.566,1207.43 364.232,1206.1 364.5,1204.5C 424.501,1204.33 484.501,1204.5 544.5,1205C 545.456,1208.39 545.789,1211.89 545.5,1215.5 Z"/></g>
<g><path style="opacity:1" fill="#ebeaea" d="M 545.5,1215.5 C 546.29,1228.17 547.29,1240.84 548.5,1253.5C 548.388,1259.73 549.054,1265.73 550.5,1271.5C 552.298,1292.15 553.965,1312.82 555.5,1333.5C 555.334,1337.85 555.501,1342.18 556,1346.5C 557.444,1348.16 559.278,1348.82 561.5,1348.5C 566.43,1350.09 571.43,1351.42 576.5,1352.5C 578.515,1353.92 580.848,1354.59 583.5,1354.5C 589.472,1357.15 595.805,1358.82 602.5,1359.5C 602.833,1359.5 603.167,1359.5 603.5,1359.5C 606.505,1361.28 609.838,1362.28 613.5,1362.5C 613.833,1362.5 614.167,1362.5 614.5,1362.5C 616.515,1363.92 618.848,1364.59 621.5,1364.5C 621.833,1364.5 622.167,1364.5 622.5,1364.5C 625.505,1366.28 628.838,1367.28 632.5,1367.5C 636.895,1369.44 641.562,1370.77 646.5,1371.5C 648.515,1372.92 650.848,1373.59 653.5,1373.5C 655.435,1374.15 657.435,1374.48 659.5,1374.5C 661.515,1375.92 663.848,1376.59 666.5,1376.5C 674.988,1379.46 683.655,1381.79 692.5,1383.5C 694.515,1384.92 696.848,1385.59 699.5,1385.5C 701.515,1386.92 703.848,1387.59 706.5,1387.5C 709.273,1388.66 712.273,1389.32 715.5,1389.5C 718.008,1391.55 721.008,1392.55 724.5,1392.5C 725.833,1392.83 727.167,1393.17 728.5,1393.5C 732.49,1395.59 736.823,1396.92 741.5,1397.5C 746.842,1398.5 752.175,1399.5 757.5,1400.5C 756.602,1401.16 755.602,1401.82 754.5,1402.5C 755.163,1432.96 755.496,1463.46 755.5,1494C 755.485,1524.98 754.818,1555.81 753.5,1586.5C 751.901,1586.77 750.568,1586.43 749.5,1585.5C 746.495,1583.72 743.162,1582.72 739.5,1582.5C 736.495,1580.72 733.162,1579.72 729.5,1579.5C 721.728,1577.91 714.061,1575.91 706.5,1573.5C 704.898,1571.93 702.898,1571.26 700.5,1571.5C 697.093,1569.93 693.427,1568.93 689.5,1568.5C 687.898,1566.93 685.898,1566.26 683.5,1566.5C 679.381,1565.9 675.381,1564.9 671.5,1563.5C 668.495,1561.72 665.162,1560.72 661.5,1560.5C 646.538,1557.43 631.872,1553.43 617.5,1548.5C 614.495,1546.72 611.162,1545.72 607.5,1545.5C 599.506,1543.5 591.506,1541.5 583.5,1539.5C 581.898,1537.93 579.898,1537.26 577.5,1537.5C 575.485,1536.08 573.152,1535.41 570.5,1535.5C 567.99,1535.07 565.657,1534.41 563.5,1533.5C 560.495,1531.72 557.162,1530.72 553.5,1530.5C 552.167,1530.17 550.833,1529.83 549.5,1529.5C 546.495,1527.72 543.162,1526.72 539.5,1526.5C 536.733,1526.14 534.067,1525.48 531.5,1524.5C 529.898,1522.93 527.898,1522.26 525.5,1522.5C 522.273,1522.32 519.273,1521.66 516.5,1520.5C 514.898,1518.93 512.898,1518.26 510.5,1518.5C 490.937,1513.45 471.603,1508.11 452.5,1502.5C 450.898,1500.93 448.898,1500.26 446.5,1500.5C 446.167,1500.5 445.833,1500.5 445.5,1500.5C 443.485,1499.08 441.152,1498.41 438.5,1498.5C 422.839,1494.22 407.173,1490.06 391.5,1486C 389.963,1484.89 389.297,1483.39 389.5,1481.5C 389.663,1474.94 388.996,1468.61 387.5,1462.5C 385.486,1430.97 382.819,1399.63 379.5,1368.5C 379.224,1360.32 378.557,1352.32 377.5,1344.5C 376.746,1338.21 376.08,1331.88 375.5,1325.5C 375.5,1322.17 375.5,1318.83 375.5,1315.5C 375.232,1308.32 374.565,1301.32 373.5,1294.5C 373.308,1285.59 372.308,1276.93 370.5,1268.5C 368.749,1248.48 367.083,1228.48 365.5,1208.5C 365.5,1207.5 365.5,1206.5 365.5,1205.5C 424.833,1205.5 484.167,1205.5 543.5,1205.5C 543.899,1209.01 544.566,1212.34 545.5,1215.5 Z"/></g>
<g><path style="opacity:1" fill="#fdd5c5" d="M 966.5,1208.5 C 966.532,1219.86 966.032,1231.19 965,1242.5C 964.722,1243.42 964.222,1244.08 963.5,1244.5C 964.504,1232.35 965.504,1220.35 966.5,1208.5 Z"/></g>
<g><path style="opacity:1" fill="#fac0a8" d="M 963.5,1246.5 C 963.663,1253.06 962.996,1259.39 961.5,1265.5C 961.454,1258.95 962.121,1252.62 963.5,1246.5 Z"/></g>
<g><path style="opacity:1" fill="#e78c73" d="M 548.5,1253.5 C 549.946,1259.27 550.612,1265.27 550.5,1271.5C 549.054,1265.73 548.388,1259.73 548.5,1253.5 Z"/></g>
<g><path style="opacity:1" fill="#eac2b7" d="M 370.5,1268.5 C 372.308,1276.93 373.308,1285.59 373.5,1294.5C 371.895,1286.04 370.895,1277.38 370.5,1268.5 Z"/></g>
<g><path style="opacity:1" fill="#f58453" d="M 1141.5,1253.5 C 1141.93,1264.77 1140.93,1275.77 1138.5,1286.5C 1139.43,1275.35 1140.43,1264.35 1141.5,1253.5 Z"/></g>
<g><path style="opacity:1" fill="#f8af8f" d="M 1138.5,1287.5 C 1138.62,1293.07 1137.96,1298.4 1136.5,1303.5C 1136.53,1297.95 1137.19,1292.62 1138.5,1287.5 Z"/></g>
<g><path style="opacity:1" fill="#eac5bb" d="M 373.5,1294.5 C 374.565,1301.32 375.232,1308.32 375.5,1315.5C 374.833,1313.17 374.167,1310.83 373.5,1308.5C 373.5,1303.83 373.5,1299.17 373.5,1294.5 Z"/></g>
<g><path style="opacity:1" fill="#fcdccf" d="M 1136.5,1306.5 C 1135.58,1315.81 1134.91,1325.14 1134.5,1334.5C 1134.17,1334.5 1133.83,1334.5 1133.5,1334.5C 1133.72,1326.15 1134.22,1317.82 1135,1309.5C 1135.23,1308.26 1135.73,1307.26 1136.5,1306.5 Z"/></g>
<g><path style="opacity:1" fill="#e67456" d="M 373.5,1308.5 C 374.167,1310.83 374.833,1313.17 375.5,1315.5C 375.5,1318.83 375.5,1322.17 375.5,1325.5C 374.116,1320.06 373.45,1314.39 373.5,1308.5 Z"/></g>
<g><path style="opacity:1" fill="#e99078" d="M 555.5,1333.5 C 556.201,1337.73 557.034,1342.06 558,1346.5C 559.302,1347.08 560.469,1347.75 561.5,1348.5C 559.278,1348.82 557.444,1348.16 556,1346.5C 555.501,1342.18 555.334,1337.85 555.5,1333.5 Z"/></g>
<g><path style="opacity:1" fill="#fbc7b0" d="M 943.5,1350.5 C 938.739,1352.33 933.739,1353.66 928.5,1354.5C 933.126,1352.17 938.126,1350.83 943.5,1350.5 Z"/></g>
<g><path style="opacity:1" fill="#f79f79" d="M 1133.5,1334.5 C 1133.83,1334.5 1134.17,1334.5 1134.5,1334.5C 1134.55,1343.1 1133.55,1351.43 1131.5,1359.5C 1132.08,1351.16 1132.75,1342.83 1133.5,1334.5 Z"/></g>
<g><path style="opacity:1" fill="#e78971" d="M 576.5,1352.5 C 579.152,1352.41 581.485,1353.08 583.5,1354.5C 580.848,1354.59 578.515,1353.92 576.5,1352.5 Z"/></g>
<g><path style="opacity:1" fill="#e99a85" d="M 583.5,1354.5 C 590.09,1355.59 596.423,1357.26 602.5,1359.5C 595.805,1358.82 589.472,1357.15 583.5,1354.5 Z"/></g>
<g><path style="opacity:1" fill="#f9b496" d="M 919.5,1356.5 C 917.485,1357.92 915.152,1358.59 912.5,1358.5C 914.515,1357.08 916.848,1356.41 919.5,1356.5 Z"/></g>
<g><path style="opacity:1" fill="#e88368" d="M 603.5,1359.5 C 607.162,1359.72 610.495,1360.72 613.5,1362.5C 609.838,1362.28 606.505,1361.28 603.5,1359.5 Z"/></g>
<g><path style="opacity:1" fill="#fac1a8" d="M 908.5,1359.5 C 905.495,1361.28 902.162,1362.28 898.5,1362.5C 901.505,1360.72 904.838,1359.72 908.5,1359.5 Z"/></g>
<g><path style="opacity:1" fill="#e87b5e" d="M 614.5,1362.5 C 617.152,1362.41 619.485,1363.08 621.5,1364.5C 618.848,1364.59 616.515,1363.92 614.5,1362.5 Z"/></g>
<g><path style="opacity:1" fill="#e77c5f" d="M 622.5,1364.5 C 626.162,1364.72 629.495,1365.72 632.5,1367.5C 628.838,1367.28 625.505,1366.28 622.5,1364.5 Z"/></g>
<g><path style="opacity:1" fill="#fccfbc" d="M 898.5,1362.5 C 893.874,1364.83 888.874,1366.17 883.5,1366.5C 888.261,1364.67 893.261,1363.34 898.5,1362.5 Z"/></g>
<g><path style="opacity:1" fill="#e88b72" d="M 377.5,1344.5 C 378.557,1352.32 379.224,1360.32 379.5,1368.5C 377.785,1360.74 377.118,1352.74 377.5,1344.5 Z"/></g>
<g><path style="opacity:1" fill="#e88f78" d="M 632.5,1367.5 C 637.529,1367.92 642.195,1369.25 646.5,1371.5C 641.562,1370.77 636.895,1369.44 632.5,1367.5 Z"/></g>
<g><path style="opacity:0.004" fill="#e34d25" d="M 139.5,1369.5 C 138.833,1370.17 138.833,1370.17 139.5,1369.5 Z"/></g>
<g><path style="opacity:1" fill="#f8a987" d="M 870.5,1369.5 C 868.485,1370.92 866.152,1371.59 863.5,1371.5C 865.515,1370.08 867.848,1369.41 870.5,1369.5 Z"/></g>
<g><path style="opacity:1" fill="#e9a593" d="M 646.5,1371.5 C 649.152,1371.41 651.485,1372.08 653.5,1373.5C 650.848,1373.59 648.515,1372.92 646.5,1371.5 Z"/></g>
<g><path style="opacity:1" fill="#fab79a" d="M 863.5,1371.5 C 861.485,1372.92 859.152,1373.59 856.5,1373.5C 858.515,1372.08 860.848,1371.41 863.5,1371.5 Z"/></g>
<g><path style="opacity:1" fill="#e67759" d="M 659.5,1374.5 C 662.152,1374.41 664.485,1375.08 666.5,1376.5C 663.848,1376.59 661.515,1375.92 659.5,1374.5 Z"/></g>
<g><path style="opacity:1" fill="#fccdba" d="M 856.5,1373.5 C 854.898,1375.07 852.898,1375.74 850.5,1375.5C 852.102,1373.93 854.102,1373.26 856.5,1373.5 Z"/></g>
<g><path style="opacity:1" fill="#fbcab6" d="M 845.5,1376.5 C 842.495,1378.28 839.162,1379.28 835.5,1379.5C 838.505,1377.72 841.838,1376.72 845.5,1376.5 Z"/></g>
<g><path style="opacity:1" fill="#fbc2a9" d="M 822.5,1382.5 C 820.898,1384.07 818.898,1384.74 816.5,1384.5C 818.102,1382.93 820.102,1382.26 822.5,1382.5 Z"/></g>
<g><path style="opacity:1" fill="#e7866c" d="M 692.5,1383.5 C 695.152,1383.41 697.485,1384.08 699.5,1385.5C 696.848,1385.59 694.515,1384.92 692.5,1383.5 Z"/></g>
<g><path style="opacity:1" fill="#e8947f" d="M 699.5,1385.5 C 702.152,1385.41 704.485,1386.08 706.5,1387.5C 703.848,1387.59 701.515,1386.92 699.5,1385.5 Z"/></g>
<g><path style="opacity:1" fill="#fbc8b3" d="M 811.5,1385.5 C 809.898,1387.07 807.898,1387.74 805.5,1387.5C 807.102,1385.93 809.102,1385.26 811.5,1385.5 Z"/></g>
<g><path style="opacity:1" fill="#f9b294" d="M 803.5,1387.5 C 800.495,1389.28 797.162,1390.28 793.5,1390.5C 796.505,1388.72 799.838,1387.72 803.5,1387.5 Z"/></g>
<g><path style="opacity:1" fill="#eaad9e" d="M 715.5,1389.5 C 718.746,1390.05 721.746,1391.05 724.5,1392.5C 721.008,1392.55 718.008,1391.55 715.5,1389.5 Z"/></g>
<g><path style="opacity:1" fill="#fac0a8" d="M 789.5,1391.5 C 787.485,1392.92 785.152,1393.59 782.5,1393.5C 784.515,1392.08 786.848,1391.41 789.5,1391.5 Z"/></g>
<g><path style="opacity:1" fill="#eac1b6" d="M 728.5,1393.5 C 733.177,1394.08 737.51,1395.41 741.5,1397.5C 736.823,1396.92 732.49,1395.59 728.5,1393.5 Z"/></g>
<g><path style="opacity:1" fill="#fbc3ac" d="M 774.5,1395.5 C 771.495,1397.28 768.162,1398.28 764.5,1398.5C 767.505,1396.72 770.838,1395.72 774.5,1395.5 Z"/></g>
<g><path style="opacity:1" fill="#f8a886" d="M 1131.5,1366.5 C 1130.58,1380.02 1129.24,1393.35 1127.5,1406.5C 1127.73,1392.91 1129.07,1379.58 1131.5,1366.5 Z"/></g>
<g><path style="opacity:1" fill="#fbd0be" d="M 1126.5,1421.5 C 1125.73,1430.33 1124.73,1439 1123.5,1447.5C 1123.61,1439.81 1124.11,1432.14 1125,1424.5C 1125.23,1423.26 1125.73,1422.26 1126.5,1421.5 Z"/></g>
<g><path style="opacity:1" fill="#fcd6c6" d="M 1123.5,1452.5 C 1122.87,1458.14 1122.53,1463.81 1122.5,1469.5C 1122.17,1469.5 1121.83,1469.5 1121.5,1469.5C 1121.33,1465.15 1121.5,1460.82 1122,1456.5C 1122.21,1454.94 1122.71,1453.61 1123.5,1452.5 Z"/></g>
<g><path style="opacity:1" fill="#e77b5f" d="M 387.5,1462.5 C 388.996,1468.61 389.663,1474.94 389.5,1481.5C 388.253,1475.37 387.586,1469.04 387.5,1462.5 Z"/></g>
<g><path style="opacity:1" fill="#f7a17c" d="M 1121.5,1469.5 C 1121.83,1469.5 1122.17,1469.5 1122.5,1469.5C 1122.56,1474.73 1121.89,1479.73 1120.5,1484.5C 1120.75,1479.49 1121.08,1474.49 1121.5,1469.5 Z"/></g>
<g><path style="opacity:1" fill="#f68d60" d="M 1115.5,1486.5 C 1113.9,1488.07 1111.9,1488.74 1109.5,1488.5C 1111.1,1486.93 1113.1,1486.26 1115.5,1486.5 Z"/></g>
<g><path style="opacity:1" fill="#f79971" d="M 1108.5,1488.5 C 1106.49,1489.92 1104.15,1490.59 1101.5,1490.5C 1103.51,1489.08 1105.85,1488.41 1108.5,1488.5 Z"/></g>
<g><path style="opacity:1" fill="#e9a898" d="M 438.5,1498.5 C 441.152,1498.41 443.485,1499.08 445.5,1500.5C 442.848,1500.59 440.515,1499.92 438.5,1498.5 Z"/></g>
<g><path style="opacity:1" fill="#eaad9e" d="M 446.5,1500.5 C 448.898,1500.26 450.898,1500.93 452.5,1502.5C 450.102,1502.74 448.102,1502.07 446.5,1500.5 Z"/></g>
<g><path style="opacity:1" fill="#f8a481" d="M 1064.5,1500.5 C 1061.5,1502.28 1058.16,1503.28 1054.5,1503.5C 1057.5,1501.72 1060.84,1500.72 1064.5,1500.5 Z"/></g>
<g><path style="opacity:1" fill="#f79c74" d="M 1050.5,1504.5 C 1047.5,1506.28 1044.16,1507.28 1040.5,1507.5C 1043.5,1505.72 1046.84,1504.72 1050.5,1504.5 Z"/></g>
<g><path style="opacity:1" fill="#e9a694" d="M 510.5,1518.5 C 512.898,1518.26 514.898,1518.93 516.5,1520.5C 514.102,1520.74 512.102,1520.07 510.5,1518.5 Z"/></g>
<g><path style="opacity:1" fill="#f69368" d="M 989.5,1521.5 C 986.495,1523.28 983.162,1524.28 979.5,1524.5C 982.505,1522.72 985.838,1521.72 989.5,1521.5 Z"/></g>
<g><path style="opacity:1" fill="#eab0a1" d="M 525.5,1522.5 C 527.898,1522.26 529.898,1522.93 531.5,1524.5C 529.102,1524.74 527.102,1524.07 525.5,1522.5 Z"/></g>
<g><path style="opacity:1" fill="#eab0a1" d="M 539.5,1526.5 C 543.162,1526.72 546.495,1527.72 549.5,1529.5C 545.838,1529.28 542.505,1528.28 539.5,1526.5 Z"/></g>
<g><path style="opacity:1" fill="#e9ae9e" d="M 553.5,1530.5 C 557.162,1530.72 560.495,1531.72 563.5,1533.5C 559.838,1533.28 556.505,1532.28 553.5,1530.5 Z"/></g>
<g><path style="opacity:1" fill="#f8a07b" d="M 952.5,1531.5 C 950.898,1533.07 948.898,1533.74 946.5,1533.5C 948.102,1531.93 950.102,1531.26 952.5,1531.5 Z"/></g>
<g><path style="opacity:1" fill="#e99a84" d="M 570.5,1535.5 C 573.152,1535.41 575.485,1536.08 577.5,1537.5C 574.848,1537.59 572.515,1536.92 570.5,1535.5 Z"/></g>
<g><path style="opacity:1" fill="#f7946b" d="M 938.5,1535.5 C 936.898,1537.07 934.898,1537.74 932.5,1537.5C 934.102,1535.93 936.102,1535.26 938.5,1535.5 Z"/></g>
<g><path style="opacity:1" fill="#e89680" d="M 577.5,1537.5 C 579.898,1537.26 581.898,1537.93 583.5,1539.5C 581.214,1539.41 579.214,1538.74 577.5,1537.5 Z"/></g>
<g><path style="opacity:1" fill="#f58759" d="M 924.5,1539.5 C 920.498,1541.61 916.165,1542.94 911.5,1543.5C 915.502,1541.39 919.835,1540.06 924.5,1539.5 Z"/></g>
<g><path style="opacity:1" fill="#eab3a5" d="M 607.5,1545.5 C 611.162,1545.72 614.495,1546.72 617.5,1548.5C 613.838,1548.28 610.505,1547.28 607.5,1545.5 Z"/></g>
<g><path style="opacity:1" fill="#f89c75" d="M 887.5,1549.5 C 884.619,1551.68 881.286,1552.68 877.5,1552.5C 880.583,1550.98 883.916,1549.98 887.5,1549.5 Z"/></g>
<g><path style="opacity:1" fill="#f69064" d="M 877.5,1552.5 C 875.898,1554.07 873.898,1554.74 871.5,1554.5C 873.102,1552.93 875.102,1552.26 877.5,1552.5 Z"/></g>
<g><path style="opacity:1" fill="#f47945" d="M 871.5,1554.5 C 870.737,1555.27 869.737,1555.77 868.5,1556C 872.5,1556.67 872.5,1557.33 868.5,1558C 863.552,1558.69 858.552,1559.19 853.5,1559.5C 859.131,1556.92 865.131,1555.26 871.5,1554.5 Z"/></g>
<g><path style="opacity:1" fill="#eab3a4" d="M 661.5,1560.5 C 665.162,1560.72 668.495,1561.72 671.5,1563.5C 667.838,1563.28 664.505,1562.28 661.5,1560.5 Z"/></g>
<g><path style="opacity:1" fill="#e9b6a7" d="M 683.5,1566.5 C 685.898,1566.26 687.898,1566.93 689.5,1568.5C 687.102,1568.74 685.102,1568.07 683.5,1566.5 Z"/></g>
<g><path style="opacity:1" fill="#eaa796" d="M 689.5,1568.5 C 693.427,1568.93 697.093,1569.93 700.5,1571.5C 696.466,1571.48 692.799,1570.48 689.5,1568.5 Z"/></g>
<g><path style="opacity:1" fill="#f68f64" d="M 813.5,1570.5 C 811.485,1571.92 809.152,1572.59 806.5,1572.5C 808.515,1571.08 810.848,1570.41 813.5,1570.5 Z"/></g>
<g><path style="opacity:1" fill="#e9a592" d="M 700.5,1571.5 C 702.898,1571.26 704.898,1571.93 706.5,1573.5C 704.102,1573.74 702.102,1573.07 700.5,1571.5 Z"/></g>
<g><path style="opacity:1" fill="#eab0a0" d="M 729.5,1579.5 C 733.162,1579.72 736.495,1580.72 739.5,1582.5C 735.838,1582.28 732.505,1581.28 729.5,1579.5 Z"/></g>
<g><path style="opacity:1" fill="#e9a08d" d="M 739.5,1582.5 C 743.162,1582.72 746.495,1583.72 749.5,1585.5C 745.838,1585.28 742.505,1584.28 739.5,1582.5 Z"/></g>
<g><path style="opacity:1" fill="#f69166" d="M 765.5,1583.5 C 762.916,1585.47 759.916,1586.47 756.5,1586.5C 759.145,1584.69 762.145,1583.69 765.5,1583.5 Z"/></g>
<g><path style="opacity:0.004" fill="#e34d25" d="M 206.5,1744.5 C 205.833,1745.17 205.833,1745.17 206.5,1744.5 Z"/></g>
</svg>
